<?xml version="1.0" standalone="no"?>
<!DOCTYPE svg PUBLIC "-//W3C//DTD SVG 20010904//EN"
 "http://www.w3.org/TR/2001/REC-SVG-20010904/DTD/svg10.dtd">
<svg version="1.0" xmlns="http://www.w3.org/2000/svg"
 width="1920.000000pt" height="502.000000pt" viewBox="0 0 1920.000000 502.000000"
 preserveAspectRatio="xMidYMid meet">

<g transform="translate(0.000000,502.000000) scale(0.100000,-0.100000)"
fill="#000000" stroke="none">
<path d="M4665 4050 c3 -6 21 -17 38 -26 l32 -16 -30 26 c-31 26 -51 34 -40
16z"/>
<path d="M15624 3909 c-4 -8 4 -21 22 -36 30 -24 50 -30 39 -13 -3 6 0 10 8
10 8 0 18 -10 23 -21 6 -12 27 -31 49 -43 36 -21 84 -71 74 -80 -2 -2 -25 3
-50 10 -32 10 -64 31 -101 68 l-55 53 -1 -46 c0 -25 -2 -74 -5 -107 -5 -77 7
-101 69 -134 26 -14 54 -36 62 -48 13 -20 13 -21 -25 -16 -72 10 -112 48 -113
106 l-1 23 -14 -25 c-11 -19 -14 -42 -9 -92 4 -47 3 -68 -5 -68 -7 0 -9 9 -5
24 3 14 -3 42 -17 71 -13 27 -23 69 -23 94 -1 40 3 47 31 66 26 16 32 26 32
55 0 19 0 53 1 74 0 21 -2 41 -5 44 -3 4 -77 -65 -165 -153 l-158 -158 3 -46
c3 -33 10 -50 27 -63 67 -49 65 -45 29 -50 -23 -3 -31 -1 -27 8 3 8 0 11 -9 8
-8 -3 -17 -16 -21 -27 -6 -20 -37 -57 -47 -57 -2 0 -3 20 -2 45 1 38 -2 45
-18 45 -10 0 -15 5 -12 10 4 6 10 8 14 6 10 -7 51 31 51 47 0 8 -4 7 -11 -3
-9 -12 -10 -11 -6 5 3 11 8 29 12 40 6 16 1 13 -24 -10 -19 -18 -30 -37 -28
-47 3 -9 -1 -19 -9 -22 -8 -3 -14 0 -14 6 0 6 -2 9 -5 7 -2 -3 1 -19 7 -36 9
-24 9 -38 0 -57 -14 -32 -43 -36 -35 -5 4 16 8 17 14 7 6 -9 9 -5 9 14 0 64
-9 63 -81 -8 -37 -37 -66 -71 -63 -76 9 -15 74 -8 116 12 50 24 52 24 44 4 -4
-12 -2 -15 9 -10 18 7 20 -5 3 -23 -11 -11 -9 -11 9 -2 39 20 39 11 -2 -25
-38 -34 -39 -36 -12 -30 31 7 35 -1 10 -20 -16 -12 -16 -15 -3 -24 12 -8 13
-11 1 -19 -11 -7 -11 -10 0 -15 8 -3 -6 -3 -31 0 -44 6 -49 -9 -7 -18 31 -5
24 -23 -11 -26 -33 -3 -33 -4 -16 -23 14 -16 15 -19 2 -19 -9 0 -21 7 -28 15
-19 23 -30 18 -30 -15 0 -39 -11 -38 -35 2 l-19 33 -9 -35 c-11 -45 -14 -47
-31 -24 -13 17 -18 17 -36 6 -25 -15 -38 -9 -23 10 5 7 13 22 16 33 7 20 7 20
-8 1 -8 -11 -15 -23 -15 -28 0 -4 -4 -8 -10 -8 -5 0 -10 17 -10 38 -1 33 -2
35 -14 19 -20 -26 -76 -43 -87 -26 -5 8 -9 17 -9 22 0 10 18 9 22 -2 2 -5 23
14 47 41 l44 50 -316 316 -316 315 -815 -815 -815 -814 318 -318 319 -318 -6
-67 c-2 -36 -13 -83 -23 -103 -11 -21 -19 -50 -19 -65 0 -26 -1 -25 -20 12
-27 53 -26 108 2 135 12 11 28 20 35 20 7 0 13 6 13 14 0 8 3 23 6 33 3 10 -2
6 -11 -9 -8 -16 -21 -28 -27 -28 -6 0 -60 -48 -119 -106 -93 -92 -107 -110
-98 -126 6 -11 8 -24 5 -31 -2 -7 -8 -2 -11 11 -4 12 -10 22 -14 22 -14 0 -61
-57 -61 -74 0 -10 -5 -14 -11 -10 -6 3 -21 -6 -34 -22 l-23 -28 28 -51 c34
-59 42 -109 20 -111 -38 -3 -42 -7 -10 -13 31 -5 35 -9 32 -33 -5 -41 16 -34
24 7 5 26 13 37 30 41 13 3 24 10 24 16 0 5 -10 6 -21 3 -24 -8 -39 8 -39 42
0 12 -9 31 -20 41 -17 16 -18 22 -8 50 7 18 16 32 21 32 5 0 7 -6 4 -13 -3 -8
1 -28 9 -45 41 -92 44 -97 44 -77 0 11 -9 35 -20 53 -16 26 -17 32 -5 32 8 0
15 6 15 14 0 18 49 66 68 66 13 0 12 -3 -3 -20 -10 -11 -15 -23 -12 -26 3 -4
0 -19 -8 -35 -19 -36 -19 -49 0 -49 8 0 15 -9 15 -20 0 -22 15 -27 23 -7 4 9
6 9 6 0 1 -6 -3 -15 -9 -18 -5 -3 -10 -14 -10 -25 0 -10 -18 -42 -40 -71 -22
-30 -40 -58 -40 -63 0 -6 7 0 16 12 9 13 27 34 40 47 14 14 30 39 36 55 11 33
33 42 25 10 -3 -11 -2 -20 2 -20 7 0 19 20 39 63 3 5 -6 4 -18 -3 -22 -12 -22
-11 -16 24 4 20 2 44 -4 55 -6 13 -7 28 -1 43 9 21 10 20 11 -12 1 -49 20 -18
20 33 0 26 4 37 15 37 9 0 15 -10 15 -26 0 -17 -4 -23 -12 -18 -8 5 -9 2 -5
-10 4 -10 7 -24 7 -32 0 -8 4 -14 10 -14 5 0 6 7 3 17 -4 10 -2 14 4 10 6 -4
13 -2 15 3 2 7 10 5 23 -3 18 -14 18 -16 2 -31 -24 -25 -22 -27 22 -20 24 4
41 2 45 -5 4 -6 1 -11 -6 -12 -13 -1 -20 -2 -85 -14 -24 -4 -33 -11 -33 -26 0
-23 43 -43 77 -36 13 2 23 0 23 -4 0 -5 -4 -9 -8 -9 -5 0 -17 -8 -28 -18 -11
-10 -33 -22 -49 -26 -28 -6 -29 -5 -11 9 14 11 16 15 5 15 -8 0 -32 -21 -54
-47 -22 -25 -48 -54 -57 -64 -10 -11 -18 -25 -18 -31 0 -10 3 -9 9 1 6 9 11
10 15 3 11 -19 33 -2 29 21 -3 13 4 31 17 45 22 24 45 30 37 10 -3 -7 -8 -20
-11 -29 -5 -10 -2 -16 8 -16 8 0 15 3 14 6 -3 29 5 37 36 38 34 1 35 0 20 -22
-15 -24 -67 -48 -78 -38 -3 4 -6 1 -6 -6 0 -7 -4 -9 -10 -6 -5 3 -10 1 -10 -4
0 -17 58 -13 86 5 13 9 35 17 47 18 15 1 21 7 19 19 -2 9 3 17 9 17 7 0 9 -3
6 -7 -4 -3 0 -17 8 -30 9 -13 12 -23 8 -24 -5 -1 -15 -2 -23 -3 -8 -2 -25 -3
-38 -4 -39 -3 -13 -24 27 -22 49 3 61 -1 32 -9 -22 -6 -23 -8 -8 -23 22 -22
22 -38 -1 -38 -13 0 -18 -8 -17 -27 0 -21 -4 -27 -17 -25 -34 6 -18 -17 17
-24 19 -3 33 -11 32 -17 -1 -6 9 -13 23 -15 24 -4 24 -3 -7 26 -35 30 -42 52
-19 52 35 0 85 -87 52 -91 -6 -1 5 -4 24 -8 27 -5 36 -11 38 -31 3 -21 2 -22
-12 -11 -10 8 -28 11 -45 8 -19 -4 -33 -1 -41 8 -7 8 -17 15 -23 15 -5 0 28
-38 74 -85 45 -47 86 -85 90 -85 4 0 13 20 20 45 7 25 16 45 20 45 10 0 32
-127 26 -144 -6 -15 22 -46 42 -46 7 0 9 -5 6 -10 -3 -6 -2 -10 3 -10 5 0 20
-16 33 -35 30 -43 39 -44 39 -2 0 23 3 28 9 18 5 -8 6 -24 1 -36 -7 -19 3 -33
69 -99 63 -62 82 -76 108 -76 17 0 39 -7 47 -16 14 -13 16 -13 16 -1 0 10 -18
20 -50 28 -46 12 -79 33 -69 43 4 4 63 9 92 7 10 -1 24 -15 31 -32 11 -26 14
-28 26 -15 7 9 19 16 27 16 18 0 5 -25 -33 -63 l-27 -27 31 0 c28 0 32 4 46
54 24 81 97 133 89 63 -6 -47 -24 -78 -58 -99 l-30 -18 68 0 c56 0 67 3 67 17
0 15 1 15 18 0 27 -24 119 -24 125 1 4 16 5 16 6 0 1 -16 14 -18 126 -18 103
0 125 3 125 15 0 21 66 84 98 91 15 4 30 12 34 18 14 21 20 -4 9 -35 -6 -18
-11 -45 -11 -60 0 -25 4 -29 29 -29 22 0 41 12 73 45 30 31 54 47 78 51 31 5
33 4 18 -9 -19 -15 -25 -33 -9 -22 5 3 12 1 16 -5 7 -11 2 -13 -62 -30 -24 -6
-43 -14 -43 -19 0 -4 86 -8 190 -9 l190 -1 0 34 c0 49 14 51 35 5 27 -59 49
-53 69 19 9 33 30 74 46 92 l30 34 0 -37 c0 -51 -14 -84 -52 -119 l-32 -29 76
0 c72 0 78 2 101 30 14 16 52 45 84 65 63 38 62 42 -7 21 -41 -13 -48 -12 -82
7 -21 11 -38 24 -38 28 0 19 99 25 131 9 10 -6 61 -11 112 -11 118 -1 116 -1
91 19 -12 10 -27 29 -34 42 -12 22 -11 23 1 13 13 -10 14 -7 11 22 -5 38 34
113 50 97 19 -19 20 -79 3 -116 -11 -23 -14 -41 -8 -47 13 -13 73 52 88 95 11
32 11 36 -6 41 -24 8 -25 25 -1 25 9 0 23 4 31 9 11 7 6 13 -20 27 -19 10 -28
19 -21 22 7 2 20 -2 29 -10 13 -10 15 -10 9 0 -4 7 -2 20 6 29 8 10 9 18 3 20
-6 2 -9 20 -7 40 l5 37 17 -43 c12 -31 19 -40 25 -31 5 9 4 15 -3 18 -7 2 -12
19 -12 38 0 21 4 33 10 29 6 -3 10 0 11 7 0 7 4 4 9 -7 7 -18 8 -19 15 -2 12
29 25 19 20 -15 l-5 -33 17 35 18 35 3 -43 c2 -24 -1 -49 -7 -56 -8 -9 -7 -13
4 -13 17 0 18 4 15 63 -1 40 19 73 28 46 2 -7 8 -9 14 -6 7 4 8 -8 3 -37 l-7
-44 153 152 154 153 -23 22 c-17 17 -24 20 -34 10 -20 -20 -74 -14 -106 13
-45 37 -65 87 -53 130 8 30 6 37 -16 61 l-26 28 -29 -33 c-16 -18 -32 -30 -35
-28 -3 3 1 28 8 56 l12 50 -39 35 c-36 32 -40 34 -57 18 -12 -11 -16 -24 -12
-39 7 -29 2 -29 -29 1 -30 27 -36 52 -8 37 13 -7 22 -5 39 11 l21 20 -35 31
c-28 24 -38 29 -51 20 -10 -6 -16 -22 -15 -37 2 -33 -2 -32 -41 2 -38 33 -42
48 -13 44 13 -2 31 6 40 16 17 19 15 22 -59 96 -42 41 -80 73 -85 70 -5 -3
-14 -14 -19 -25 -9 -16 -5 -25 27 -54 32 -30 43 -35 71 -30 39 7 41 -2 5 -31
l-28 -22 -47 51 c-27 28 -48 54 -48 58 0 4 -13 16 -29 25 -30 18 -34 38 -6 27
18 -6 45 14 45 35 0 27 -41 53 -74 46 -52 -9 -85 10 -177 99 -39 39 -46 75 -7
40 19 -17 22 -16 108 74 69 71 87 96 83 112 -8 33 8 25 60 -29 27 -28 52 -50
56 -50 12 0 801 796 801 809 0 6 -14 17 -30 23 -37 12 -34 28 7 44 24 11 35
10 58 -2 28 -14 29 -14 74 35 l46 49 -45 5 c-25 2 -53 -1 -64 -6 -10 -5 -34
-7 -52 -4 -28 5 -34 3 -34 -12 0 -10 -11 -35 -25 -55 -14 -20 -25 -44 -25 -52
0 -8 -6 -17 -14 -20 -8 -3 -17 -15 -20 -28 -9 -37 -59 -75 -120 -91 -85 -22
-113 -20 -147 14 -33 34 -35 55 -14 137 15 60 44 99 79 110 11 4 29 17 39 30
10 13 28 24 39 24 11 0 31 9 45 20 30 23 89 26 116 6 11 -9 32 -12 57 -9 32 5
43 1 63 -20 55 -54 135 -43 209 30 44 44 47 48 28 53 -21 5 -21 6 9 47 17 24
31 49 31 56 0 19 -30 44 -61 52 -35 9 -98 73 -82 83 9 5 -17 37 -77 97 -54 54
-90 83 -90 73 0 -20 -50 -98 -63 -98 -4 0 1 12 12 26 20 26 20 44 0 44 -6 0
-8 -4 -5 -9 3 -4 -4 -17 -17 -27 l-22 -19 19 23 c14 17 16 22 5 22 -10 1 -9 4
3 11 10 5 26 9 35 7 13 -2 19 4 21 22 2 20 -18 45 -102 129 l-105 105 -23 -20
-23 -19 19 23 20 23 -38 38 c-28 29 -43 37 -62 33 -13 -2 -24 -9 -24 -14 0 -5
5 -6 11 -2 7 4 10 1 7 -7 -6 -19 -37 -24 -42 -7 -2 7 -8 27 -12 43 l-7 30 -8
-35 c-5 -19 -6 -49 -3 -66 3 -18 1 -35 -5 -38 -6 -4 -11 0 -11 8 0 9 -4 16 -8
16 -9 0 -19 -19 -41 -72 -6 -16 -16 -28 -22 -28 -6 0 -8 7 -5 16 5 12 0 14
-24 10 -28 -4 -30 -3 -23 22 7 32 20 42 54 42 25 0 59 26 59 45 0 5 -6 0 -14
-11 -8 -10 -18 -16 -21 -12 -12 11 4 39 24 45 17 4 30 30 31 57 0 15 -50 -36
-66 -66 -9 -17 -23 -28 -35 -28 -17 0 -19 3 -10 14 9 11 7 15 -11 20 -13 4
-18 10 -11 12 7 3 9 12 7 19 -8 19 42 31 61 15 21 -17 55 14 54 49 l0 26 -10
-23 c-11 -28 -33 -24 -37 6 -2 14 2 22 11 22 20 0 29 26 13 39 -15 13 -39 -9
-55 -52 -7 -18 -18 -27 -32 -27 -14 0 -19 5 -16 14 3 8 -2 16 -13 19 -23 6
-20 37 5 51 11 6 28 19 39 29 20 17 19 19 -64 102 -88 88 -124 108 -190 103
-25 -2 -30 -6 -26 -21 4 -18 3 -17 -19 3 -17 16 -25 18 -31 9z m64 -145 c17
-22 49 -48 70 -58 33 -15 42 -25 50 -57 11 -44 6 -48 -30 -19 -26 20 -38 18
-38 -9 0 -9 -5 -23 -10 -31 -9 -13 -12 -12 -25 4 -19 25 -19 70 0 90 20 20 19
26 -11 57 -16 16 -33 25 -43 22 -12 -4 -13 -3 -2 5 10 8 11 14 1 33 -15 28 -5
19 38 -37z m-128 -39 c0 -8 -2 -15 -4 -15 -2 0 -6 7 -10 15 -3 8 -1 15 4 15 6
0 10 -7 10 -15z m-60 -55 c14 -12 18 -20 9 -19 -18 1 -57 17 -44 18 6 1 3 6
-5 11 -13 8 -13 10 1 10 9 0 26 -9 39 -20z m-10 -69 c0 -5 -14 -11 -30 -13
-33 -5 -29 7 5 15 11 3 21 5 23 6 1 0 2 -3 2 -8z m30 -5 c0 -2 -7 -9 -15 -16
-13 -11 -14 -10 -9 4 5 14 24 23 24 12z m-1123 -73 c-5 -7 -14 -10 -20 -6 -8
5 -7 8 1 11 7 2 10 8 7 12 -3 5 -13 6 -23 3 -15 -6 -15 -4 -4 9 12 15 15 15
31 0 12 -12 15 -21 8 -29z m1103 -8 c0 -19 -17 -28 -25 -15 -5 8 -14 5 -28 -7
-19 -16 -20 -16 -8 0 12 15 11 17 -10 17 -29 0 -13 17 21 22 33 5 50 -1 50
-17z m-1070 1 c0 -2 -7 -7 -16 -10 -8 -3 -12 -2 -9 4 6 10 25 14 25 6z m20
-20 c0 -2 -6 -9 -14 -15 -11 -9 -16 -9 -22 0 -4 8 -3 9 4 5 7 -4 12 -2 12 3 0
6 5 11 10 11 6 0 10 -2 10 -4z m1121 -30 c-10 -11 -9 -16 2 -23 10 -5 12 -14
6 -28 -7 -18 -8 -18 -9 5 -1 25 -1 25 -16 5 -15 -19 -15 -19 -8 9 5 21 4 27
-5 22 -6 -4 -11 -3 -11 3 0 8 17 16 44 20 5 0 3 -5 -3 -13z m-1079 -30 c6 4 8
2 4 -4 -3 -5 0 -12 6 -15 7 -2 10 -8 6 -12 -10 -11 -38 21 -37 42 1 17 2 17 6
0 2 -9 9 -14 15 -11z m1645 -16 c-1 -11 -5 -20 -9 -20 -11 0 -20 19 -13 30 11
17 24 11 22 -10z m-512 -7 c-5 -10 -10 -34 -13 -53 l-6 -35 -6 30 c-8 42 0 75
17 75 11 0 13 -5 8 -17z m685 -48 c0 -8 -4 -15 -9 -15 -13 0 -22 16 -14 24 11
11 23 6 23 -9z m-1735 -15 c-3 -5 -11 -10 -16 -10 -6 0 -7 5 -4 10 3 6 11 10
16 10 6 0 7 -4 4 -10z m19 -25 c-4 -8 -8 -15 -10 -15 -2 0 -4 7 -4 15 0 8 4
15 10 15 5 0 7 -7 4 -15z m970 -12 c-7 -30 -35 -83 -44 -83 -3 0 -20 -14 -39
-30 -18 -17 -36 -30 -39 -30 -8 0 7 60 25 97 16 34 64 73 91 73 8 0 10 -8 6
-27z m546 2 c0 -1 -7 -8 -15 -15 -13 -10 -15 -9 -15 8 0 15 5 20 15 16 8 -4
15 -7 15 -9z m-384 -72 c40 -49 29 -56 -35 -23 -30 15 -81 75 -81 95 0 2 18
-4 40 -12 23 -9 55 -35 76 -60z m-1099 35 c-3 -7 -5 -2 -5 12 0 14 2 19 5 13
2 -7 2 -19 0 -25z m-462 -42 c-18 -14 -48 -86 -36 -86 6 0 12 4 15 9 3 5 15
11 27 14 13 4 18 2 13 -3 -12 -11 -104 -51 -104 -44 0 2 12 27 26 55 15 27 24
52 21 55 -9 9 -77 -49 -77 -65 0 -11 -3 -11 -15 -1 -12 10 -6 18 40 53 30 22
55 47 55 55 0 12 6 10 25 -8 21 -19 22 -25 10 -34z m511 18 c-3 -9 2 -14 14
-14 24 0 26 -15 5 -24 -10 -4 -20 3 -27 19 -6 13 -15 22 -19 19 -5 -3 -9 -1
-9 5 0 11 22 20 33 14 5 -3 6 -11 3 -19z m1524 10 c0 -8 -5 -12 -10 -9 -6 4
-8 11 -5 16 9 14 15 11 15 -7z m-59 -35 c-5 -13 -10 -19 -10 -12 -1 15 10 45
15 40 3 -2 0 -15 -5 -28z m149 5 c0 -17 -22 -14 -28 4 -2 7 3 12 12 12 9 0 16
-7 16 -16z m-1732 -48 c38 -39 42 -47 32 -65 -14 -27 -23 -27 -15 -1 3 11 2
27 -3 35 -7 13 -18 6 -60 -38 -49 -53 -52 -54 -68 -36 -14 15 -14 19 -3 19 8
0 35 20 59 45 34 35 42 48 31 54 -7 5 -23 6 -35 3 -19 -5 -19 -4 -7 11 7 9 16
17 20 17 3 0 25 -20 49 -44z m176 25 c3 -5 -3 -11 -15 -14 -16 -4 -18 -3 -8 9
13 16 16 17 23 5z m1386 -21 c0 -5 -7 -7 -15 -4 -8 4 -12 10 -9 15 6 11 24 2
24 -11z m-1882 -33 c-26 -9 -83 -91 -73 -107 11 -18 -1 -10 -26 17 -13 14 -19
23 -12 20 12 -8 47 31 76 83 17 32 18 32 38 14 l21 -18 -24 -9z m1904 11 c-7
-7 -12 -8 -12 -2 0 14 12 26 19 19 2 -3 -1 -11 -7 -17z m-1373 -19 c-16 -10
-23 -4 -14 10 3 6 11 8 17 5 6 -4 5 -9 -3 -15z m1735 -45 c37 -45 28 -53 -14
-12 -19 17 -35 27 -37 21 -2 -5 -11 -19 -19 -29 -8 -10 -14 -14 -11 -9 31 84
34 85 81 29z m-1694 32 c0 -2 -9 -6 -20 -9 -11 -3 -18 -1 -14 4 5 9 34 13 34
5z m-498 -31 c0 -5 -5 -11 -11 -13 -6 -2 -11 4 -11 13 0 9 5 15 11 13 6 -2 11
-8 11 -13z m1537 -23 c79 -36 123 -81 160 -162 30 -65 33 -78 29 -148 -5 -93
-48 -192 -100 -233 -94 -74 -179 -94 -305 -74 -50 7 -96 35 -60 35 9 0 19 -5
23 -11 4 -8 9 -7 15 2 6 11 12 10 27 -4 33 -30 191 -18 200 15 2 10 8 19 13
19 48 7 75 21 99 51 14 18 20 29 14 25 -7 -4 -15 0 -18 9 -10 26 -7 34 14 34
14 0 18 -5 13 -17 -4 -11 -3 -14 5 -9 17 10 15 46 -2 46 -7 0 -20 7 -27 16
-12 14 -9 16 26 12 l40 -3 7 50 c25 173 -89 331 -259 357 -54 9 -76 8 -99 -2
l-29 -13 30 -34 c77 -89 103 -113 119 -107 9 3 16 1 16 -5 0 -6 7 -11 15 -11
23 0 18 -16 -10 -28 -17 -8 -23 -16 -18 -28 4 -12 3 -15 -5 -10 -15 9 -15 39
0 54 9 9 4 12 -22 12 -20 0 -42 8 -54 19 -21 19 -22 19 -46 1 -20 -15 -22 -21
-12 -33 10 -11 10 -17 1 -22 -6 -4 -15 -1 -20 6 -6 11 -16 7 -42 -19 -22 -22
-47 -35 -73 -38 -33 -5 -36 -4 -19 7 30 18 95 82 95 94 0 5 20 19 45 30 l44
20 -19 25 c-17 22 -22 23 -40 12 -11 -7 -20 -8 -20 -3 0 5 -11 16 -25 25 -25
16 -26 16 -80 -38 -56 -55 -97 -126 -73 -126 9 0 9 -3 0 -12 -9 -9 -7 -14 6
-24 16 -12 15 -13 -3 -14 -41 0 -28 -153 16 -190 11 -8 21 -26 23 -40 3 -22 8
-25 37 -23 33 3 33 2 14 -13 -19 -15 -19 -16 13 -9 20 4 32 3 32 -4 0 -6 -7
-11 -15 -11 -18 0 -19 -11 -2 -29 27 -30 -28 8 -63 43 -96 95 -125 248 -69
364 83 170 273 241 438 164z m-1213 -18 c-21 -24 -23 -30 -11 -37 23 -12 18
-51 -9 -74 -17 -15 -27 -18 -34 -11 -8 8 -4 17 14 30 25 21 32 48 12 48 -18 0
-33 -12 -44 -33 -10 -17 -11 -16 -30 4 -10 12 -14 20 -8 16 6 -3 35 18 64 48
33 33 58 51 63 46 6 -6 -1 -21 -17 -37z m1832 1 c-3 -3 -9 2 -12 12 -6 14 -5
15 5 6 7 -7 10 -15 7 -18z m-2198 -2 c0 -3 -13 -20 -29 -38 -20 -23 -32 -30
-39 -23 -7 7 -1 18 19 35 16 14 27 29 24 34 -4 5 1 6 9 3 9 -3 16 -8 16 -11z
m-190 -48 c0 -4 -6 -3 -13 3 -10 9 -24 1 -57 -33 -42 -43 -43 -45 -26 -64 10
-11 32 -21 50 -23 l31 -4 -29 -8 c-25 -8 -33 -4 -75 38 -25 26 -38 44 -28 40
13 -5 29 5 57 36 22 24 40 49 40 56 0 8 10 4 25 -10 14 -13 25 -27 25 -31z
m2303 22 c-11 -12 -23 -29 -26 -38 -5 -16 -146 -93 -155 -85 -6 7 44 79 75
109 26 24 108 51 122 40 3 -2 -5 -13 -16 -26z m-662 0 c-10 -9 -11 -8 -5 6 3
10 9 15 12 12 3 -3 0 -11 -7 -18z m754 -59 c33 -30 71 -105 59 -117 -6 -6 -66
38 -79 58 -15 25 -35 93 -34 121 l1 25 8 -26 c4 -15 24 -42 45 -61z m-685 52
c0 -5 -2 -10 -4 -10 -3 0 -8 5 -11 10 -3 6 -1 10 4 10 6 0 11 -4 11 -10z
m-1364 -11 c3 -6 -19 -37 -51 -69 l-58 -58 -28 21 c-30 22 -37 55 -17 75 18
18 66 15 77 -5 9 -17 11 -16 35 6 14 13 23 28 20 32 -3 5 -1 9 5 9 5 0 13 -5
17 -11z m1454 -34 c7 -9 8 -15 2 -15 -5 0 -12 7 -16 15 -3 8 -4 15 -2 15 2 0
9 -7 16 -15z m-366 -10 c-7 -17 -20 -20 -28 -6 -7 10 3 21 20 21 8 0 11 -6 8
-15z m-1328 -37 c10 -12 13 -18 5 -13 -11 6 -13 4 -8 -8 5 -14 2 -15 -19 -6
-14 5 -30 6 -36 3 -5 -4 -2 5 7 20 21 32 27 32 51 4z m1738 -4 c5 -14 4 -15
-9 -4 -17 14 -19 20 -6 20 5 0 12 -7 15 -16z m-1090 -20 c92 -28 142 -69 259
-215 60 -74 118 -137 130 -141 12 -4 51 -14 86 -23 80 -20 172 -81 188 -125
11 -29 10 -34 -12 -56 -55 -55 -139 -21 -252 101 -59 63 -88 88 -105 88 -29 0
-156 -42 -164 -54 -3 -5 6 -21 20 -35 13 -15 32 -46 41 -69 14 -37 23 -46 74
-68 56 -24 85 -47 61 -47 -6 0 -32 11 -58 24 l-48 24 1 -56 c0 -91 -51 -145
-149 -158 -53 -8 -103 18 -135 70 -17 28 -19 38 -10 71 27 98 94 151 180 143
l48 -5 -22 27 c-48 59 -59 61 -166 25 -214 -73 -337 -91 -456 -69 -70 14 -117
30 -162 57 l-32 19 -26 -28 c-29 -31 -30 -30 -39 12 -6 25 -3 33 11 37 10 4
36 13 58 21 38 15 62 13 37 -3 -22 -13 -3 -37 46 -59 88 -40 132 -44 234 -22
141 32 351 94 355 106 7 20 -175 104 -227 104 -13 0 -38 -13 -55 -30 -50 -49
-145 -40 -145 14 0 28 34 46 104 55 l50 6 -34 33 c-18 19 -42 37 -52 41 -19 7
-19 7 0 24 19 17 21 16 66 -26 25 -25 46 -53 46 -64 0 -16 11 -22 58 -32 72
-16 175 -56 222 -87 l36 -24 60 19 c32 10 83 22 112 26 28 4 52 9 52 11 0 3
-9 15 -21 27 -12 12 -45 54 -73 92 -94 125 -185 188 -292 200 -42 4 -56 2 -77
-15 -34 -27 -50 -76 -38 -118 10 -32 -2 -46 -13 -16 -13 34 -5 82 22 122 21
33 37 46 72 57 49 15 49 15 134 -11z m656 4 c0 -6 -7 -7 -16 -4 -9 3 -20 6
-25 6 -6 0 -8 4 -5 9 8 12 46 2 46 -11z m-1020 -66 c0 -8 -11 -27 -24 -42 -17
-21 -26 -26 -34 -18 -8 8 -5 18 13 34 28 26 31 39 11 47 -17 7 -59 -36 -49
-48 5 -5 0 -3 -9 4 -17 12 -16 15 10 45 l27 32 28 -20 c15 -11 27 -26 27 -34z
m2290 50 c0 -12 -42 -58 -63 -69 -20 -10 -67 -6 -67 6 0 4 19 21 42 39 39 30
88 43 88 24z m-2663 -50 c-15 -16 -24 -33 -20 -38 5 -5 -2 0 -15 11 -23 19
-23 19 -3 27 11 4 26 16 33 27 8 13 16 17 22 11 6 -6 0 -20 -17 -38z m143 30
c0 -3 -12 -19 -27 -35 -26 -26 -27 -29 -10 -38 10 -6 17 -22 17 -39 0 -47 -41
-58 -82 -22 -28 23 -22 43 27 91 25 24 45 48 45 52 0 5 7 6 15 3 8 -4 15 -9
15 -12z m1450 -42 c-6 -11 -16 -20 -22 -20 -6 0 -3 9 7 20 10 11 20 20 22 20
2 0 -1 -9 -7 -20z m-83 -5 c8 -23 -26 -58 -44 -44 -16 14 -17 39 -2 39 6 0 8
-7 5 -17 -6 -15 -4 -14 14 2 16 14 17 20 8 27 -11 6 -11 8 0 8 7 0 15 -7 19
-15z m250 -1 c5 -16 -35 -25 -60 -13 l-22 10 22 -5 c16 -3 20 0 16 11 -4 11 0
14 17 11 13 -1 25 -8 27 -14z m-138 -11 c-24 -31 -39 -45 -39 -37 0 8 41 54
48 54 2 0 -2 -8 -9 -17z m-99 -38 c-13 -14 -26 -23 -28 -20 -7 7 29 45 41 45
6 0 0 -11 -13 -25z m233 -74 l-6 -24 -12 24 c-7 12 -11 28 -10 33 2 6 7 25 11
41 l7 30 8 -40 c4 -22 5 -51 2 -64z m126 85 c10 -12 8 -13 -8 -9 -12 3 -18 9
-15 14 7 12 10 11 23 -5z m-335 -41 c-31 -24 -39 -17 -13 11 13 14 25 20 27
14 2 -6 -4 -18 -14 -25z m76 0 c0 -5 -5 -3 -10 5 -5 8 -10 20 -10 25 0 6 5 3
10 -5 5 -8 10 -19 10 -25z m-30 -2 c0 -10 -32 -43 -42 -43 -5 0 -1 11 9 25 17
23 33 32 33 18z m49 -52 c-23 -23 -44 -39 -47 -36 -3 3 14 26 39 51 24 24 45
41 47 36 1 -5 -16 -28 -39 -51z m-2199 29 c0 -5 -8 -10 -17 -10 -15 0 -16 2
-3 10 19 12 20 12 20 0z m780 -42 c0 -4 -4 -8 -10 -8 -5 0 -10 5 -10 10 0 18
-24 10 -46 -15 l-21 -25 -19 22 c-10 12 -13 18 -6 14 16 -10 64 32 55 47 -3 5
8 -1 26 -14 17 -12 31 -26 31 -31z m1390 34 c0 -5 -9 -17 -20 -27 -22 -20 -28
-4 -7 20 14 16 27 19 27 7z m-2263 -24 c2 -17 0 -19 -7 -8 -5 8 -6 18 -4 22 8
12 10 10 11 -14z m2086 -8 c-6 -22 -21 -35 -30 -26 -5 5 24 46 33 46 1 0 0 -9
-3 -20z m-63 -8 c0 -25 19 -42 48 -42 13 0 20 -4 17 -10 -9 -14 -38 -13 -58 3
-20 15 -34 67 -18 67 6 0 11 -8 11 -18z m-1996 -11 c3 -5 -1 -11 -9 -14 -9 -4
-12 -1 -8 9 6 16 10 17 17 5z m2271 -11 c-10 -11 -23 -20 -28 -20 -6 0 -2 9 8
20 10 11 23 20 28 20 6 0 2 -9 -8 -20z m39 -41 c-22 -24 -17 -34 7 -13 20 18
21 18 35 -1 16 -22 18 -61 4 -70 -7 -4 -9 3 -6 21 7 37 -2 49 -25 28 -16 -14
-20 -15 -33 -1 -13 12 -13 17 -2 33 8 10 11 25 8 33 -5 14 -4 14 10 1 14 -13
14 -17 2 -31z m-2290 16 c-4 -8 -11 -12 -16 -9 -6 4 -5 10 3 15 19 12 19 11
13 -6z m866 11 c0 -3 -4 -8 -10 -11 -5 -3 -10 -1 -10 4 0 6 5 11 10 11 6 0 10
-2 10 -4z m-322 -25 c42 -12 60 -41 24 -41 -28 0 -44 -37 -37 -81 5 -29 11
-39 23 -37 10 2 20 10 25 18 4 9 5 5 2 -11 -2 -14 0 -41 5 -59 l10 -34 -205
-206 -206 -206 61 -28 c33 -15 60 -34 60 -40 0 -7 9 -21 20 -31 11 -10 18 -20
16 -22 -8 -9 -92 40 -128 75 l-38 36 -27 -26 c-27 -25 -30 -26 -81 -15 -44 9
-54 15 -58 37 -6 25 -17 67 -54 198 l-21 73 188 185 c148 147 189 182 193 168
5 -14 8 -15 15 -4 7 11 10 10 19 -2 10 -14 16 -13 49 12 20 15 33 30 30 34
-11 11 15 23 45 21 15 -1 46 -7 70 -14z m1720 7 c-2 -6 -10 -14 -16 -16 -7 -2
-10 2 -6 12 7 18 28 22 22 4z m-2228 -18 c0 -5 -5 -10 -11 -10 -5 0 -7 5 -4
10 3 6 8 10 11 10 2 0 4 -4 4 -10z m787 -7 c-9 -9 -19 -14 -23 -11 -10 10 6
28 24 28 15 0 15 -1 -1 -17z m1203 -5 c0 -13 -43 -6 -47 8 -2 7 6 10 22 7 14
-3 25 -10 25 -15z m391 5 c0 -15 2 -15 9 2 8 18 9 18 9 -5 0 -14 -4 -32 -9
-40 -6 -9 -10 -11 -10 -3 0 8 -7 10 -17 6 -16 -6 -16 -5 -4 10 7 9 11 24 7 32
-3 8 -1 15 4 15 6 0 10 -8 11 -17z m-2357 -18 c3 -8 1 -15 -4 -15 -6 0 -10 7
-10 15 0 8 2 15 4 15 2 0 6 -7 10 -15z m2144 -31 c-5 -26 -25 -28 -38 -5 -9
17 -8 20 5 15 10 -4 15 0 15 12 0 13 3 15 11 7 6 -6 9 -19 7 -29z m7 -38 c27
6 28 5 16 -10 -14 -16 -51 -23 -51 -8 0 4 -10 12 -22 17 -13 6 -24 18 -26 29
-3 16 1 14 25 -8 22 -21 34 -25 58 -20z m-2455 -150 c0 -14 14 -34 40 -55 43
-34 54 -63 21 -54 -13 3 -21 -1 -24 -14 -4 -14 -5 -13 -6 5 -1 16 -10 26 -31
33 -26 10 -28 12 -14 26 9 9 12 24 9 37 -4 11 -9 29 -12 40 -3 12 -1 16 6 12
6 -4 11 -17 11 -30z m1262 -71 c10 -21 9 -29 -5 -43 -16 -16 -17 -15 -11 15 5
26 3 32 -15 38 -11 3 -25 3 -31 0 -13 -8 -13 -41 1 -67 16 -30 3 -65 -28 -75
-37 -13 -50 -7 -69 29 -12 23 -13 33 -3 44 19 23 25 16 21 -20 -3 -25 1 -35
13 -40 36 -13 57 32 35 74 -7 12 -7 28 0 44 8 21 16 26 45 26 28 0 38 -5 47
-25z m1156 -68 c147 -142 155 -148 190 -142 23 4 32 3 27 -4 -11 -19 -58 -12
-109 15 l-49 26 -86 -28 c-65 -22 -104 -29 -163 -29 -87 1 -119 18 -117 64 2
23 2 24 6 4 6 -31 41 -53 84 -53 42 0 212 47 217 60 2 4 12 6 23 3 15 -4 18
-2 13 11 -3 9 -10 13 -15 10 -5 -3 -9 -1 -9 5 0 5 -12 23 -26 40 -32 39 -86
51 -114 26 -11 -10 -20 -13 -20 -7 0 6 10 18 23 27 31 23 85 11 125 -28z
m-2694 -15 c-5 -4 -15 -20 -22 -36 -11 -25 -11 -28 3 -23 25 10 17 -9 -9 -21
-39 -18 -40 -8 -8 55 7 13 12 32 12 44 0 19 1 19 17 4 9 -10 12 -20 7 -23z
m2904 11 c32 -15 49 -49 39 -75 -3 -7 -6 -4 -6 8 -2 37 -45 67 -98 67 -26 1
-58 -2 -70 -6 -34 -9 -28 2 10 18 35 16 73 12 125 -12z m-1884 -10 c-10 -41
-39 -96 -60 -114 -11 -9 -40 -27 -65 -41 l-46 -25 33 51 c33 52 123 153 137
155 4 0 4 -11 1 -26z m686 -93 c0 -4 -7 -13 -15 -20 -13 -11 -15 -9 -15 13 0
49 -22 49 -73 0 -27 -25 -52 -54 -56 -65 -6 -18 -8 -17 -31 8 -17 18 -20 25
-9 21 11 -3 34 12 69 48 45 46 51 56 40 69 -7 9 -24 16 -39 16 l-26 1 23 12
c21 12 27 9 77 -41 30 -30 55 -58 55 -62z m493 85 c35 -33 47 -55 29 -55 -4 0
-13 5 -20 12 -10 10 -25 -1 -73 -47 -88 -87 -109 -137 -72 -177 36 -40 82 -20
176 74 39 40 46 53 41 73 -3 14 -2 25 2 25 19 -1 76 -59 69 -70 -5 -8 -11 -8
-21 1 -12 10 -23 5 -56 -27 -23 -21 -50 -48 -59 -60 -10 -11 -38 -31 -62 -44
-54 -29 -80 -21 -122 34 -41 54 -30 90 56 181 55 58 69 78 64 95 -9 29 5 24
48 -15z m-2259 -17 c-16 -18 -29 -34 -30 -36 -1 -1 -7 5 -15 15 -8 9 -9 14 -3
10 6 -4 24 5 38 18 39 36 45 31 10 -7z m2656 -35 l25 -13 -27 0 c-30 0 -65 40
-53 60 5 8 11 3 19 -11 6 -13 23 -29 36 -36z m50 42 c6 -8 10 -20 7 -27 -4 -8
-6 -7 -6 5 -1 10 -9 17 -21 17 -11 0 -20 5 -20 10 0 15 26 12 40 -5z m-1469
-42 c-24 -48 -61 -82 -129 -122 -75 -44 -83 -39 -23 15 28 25 51 50 51 55 0
14 33 49 47 49 7 0 13 4 13 8 0 7 10 12 58 31 1 1 -6 -16 -17 -36z m-1134 -17
c-12 -13 -29 -34 -37 -46 -15 -21 -16 -22 -30 -4 -9 10 -10 15 -3 10 8 -4 17
2 25 18 6 14 15 26 20 26 4 0 8 5 8 11 0 5 -6 7 -12 4 -7 -4 -4 1 6 9 14 11
23 13 32 5 9 -8 7 -15 -9 -33z m2413 34 c0 -5 -12 -10 -27 -10 -22 0 -25 2
-13 10 20 13 40 13 40 0z m22 -42 c-9 -9 -12 -7 -12 12 0 19 3 21 12 12 9 -9
9 -15 0 -24z m-2322 -55 c0 -5 -11 -34 -24 -66 -17 -43 -26 -54 -34 -45 -7 9
-6 18 4 32 10 15 11 23 2 33 -9 11 -14 11 -33 -1 -13 -8 -26 -12 -29 -8 -4 4
17 19 46 33 58 30 68 33 68 22z m1210 -43 c-11 -15 -20 -32 -20 -37 0 -27 -42
-46 -101 -47 -33 -1 -63 2 -65 6 -3 4 13 8 35 8 34 0 44 5 68 37 49 64 128 96
83 33z m1453 34 c41 -6 58 -28 37 -47 -10 -10 -12 -8 -7 5 5 13 -2 20 -28 27
-36 10 -75 5 -75 -10 0 -5 1 -9 3 -9 1 -1 20 -3 42 -6 52 -8 58 -14 13 -14
-20 0 -38 -6 -40 -12 -3 -7 -31 -20 -64 -28 -44 -11 -62 -21 -71 -40 l-13 -25
0 32 c0 30 2 32 71 53 52 15 69 24 61 32 -13 13 -69 13 -105 -1 -33 -13 -48 5
-15 18 69 29 125 36 191 25z m-1038 -13 c3 -6 -10 -41 -30 -79 -19 -38 -35
-80 -35 -92 l0 -23 -26 24 c-19 17 -22 25 -11 27 8 2 19 13 25 26 8 19 7 27
-10 44 -17 17 -25 18 -44 10 -13 -6 -24 -18 -24 -26 0 -12 -4 -12 -20 3 -27
24 -25 30 10 31 16 1 55 15 87 31 68 35 70 36 78 24z m-314 -81 c-4 -12 -6
-11 -9 3 -3 17 -7 16 -33 -9 -16 -15 -29 -22 -29 -15 0 7 10 22 23 33 15 13
18 21 9 24 -6 3 -10 10 -7 15 9 14 53 -34 46 -51z m945 13 c5 -19 -10 -102
-36 -200 -4 -18 -5 -35 -1 -38 4 -2 34 22 66 55 44 44 56 63 52 79 -7 29 11
26 40 -5 23 -25 23 -55 0 -36 -8 7 -45 -21 -117 -88 -57 -55 -106 -97 -109
-95 -2 3 2 25 9 50 7 26 16 42 19 37 3 -6 7 18 8 52 1 33 6 73 12 88 19 51 -8
40 -71 -28 -37 -40 -62 -75 -61 -86 3 -24 -1 -23 -31 6 -29 26 -38 58 -10 36
13 -12 28 -1 105 76 80 80 89 92 83 117 -6 27 -5 28 15 15 12 -7 24 -23 27
-35z m-1571 27 c-3 -5 -13 -10 -21 -10 -8 0 -12 5 -9 10 3 6 13 10 21 10 8 0
12 -4 9 -10z m260 -10 c-3 -6 4 -14 16 -18 l23 -9 -22 -5 c-11 -3 -29 0 -39 8
-16 12 -16 15 -3 24 19 13 33 13 25 0z m-846 -34 c20 -21 29 -36 22 -40 -6 -4
-11 0 -11 8 0 25 -15 19 -52 -20 -31 -31 -36 -33 -48 -19 -7 9 -9 15 -4 13 9
-2 74 55 74 66 0 3 -9 6 -21 6 -11 0 -17 5 -14 10 10 16 19 12 54 -24z m501
14 c0 -5 -7 -10 -16 -10 -8 0 -12 5 -9 10 3 6 10 10 16 10 5 0 9 -4 9 -10z
m256 -22 c12 -12 -1 -19 -46 -25 -43 -6 -150 14 -150 28 0 10 186 7 196 -3z
m1814 2 c12 -8 9 -10 -12 -10 -16 0 -28 -5 -28 -11 0 -8 12 -10 36 -6 40 7 44
-14 4 -23 -20 -5 -21 -7 -6 -19 18 -15 21 -31 6 -31 -5 0 -19 18 -30 40 -23
45 -51 52 -68 18 -11 -23 -11 -23 -11 4 -1 16 6 31 17 37 22 13 72 14 92 1z
m-1650 -38 c0 -7 -4 -10 -10 -7 -5 3 -10 16 -10 28 0 18 2 19 10 7 5 -8 10
-21 10 -28z m320 30 c0 -14 -49 -56 -57 -49 -3 4 4 18 17 32 24 25 40 32 40
17z m-365 -42 c-10 -11 -21 -17 -24 -14 -3 3 3 12 13 20 28 20 32 17 11 -6z
m405 14 c0 -13 -54 -62 -63 -57 -5 3 4 18 19 34 26 27 44 37 44 23z m375 0
c22 -9 47 -61 40 -84 -10 -32 -21 -23 -21 16 0 39 -15 54 -57 54 -40 0 -77
-40 -77 -83 0 -38 14 -54 57 -67 l28 -8 -30 -1 c-42 -1 -73 23 -80 63 -7 37
13 88 42 105 20 12 73 14 98 5z m-763 -36 c-7 -7 -12 -8 -12 -2 0 14 12 26 19
19 2 -3 -1 -11 -7 -17z m55 0 c-3 -8 -6 -5 -6 6 -1 11 2 17 5 13 3 -3 4 -12 1
-19z m-848 -19 c17 -17 31 -38 30 -47 0 -11 -4 -8 -10 8 l-10 25 -39 -41 c-25
-27 -42 -38 -48 -32 -7 7 4 22 29 45 37 33 44 61 13 49 -14 -6 -19 6 -7 17 9
10 8 10 42 -24z m624 -9 c11 0 26 -16 56 -57 l22 -33 -24 0 c-33 0 -76 36 -93
76 -20 47 -17 58 8 34 12 -11 26 -20 31 -20z m595 28 c7 -7 12 -19 12 -27 0
-11 -4 -10 -16 5 -13 16 -15 16 -10 2 3 -10 1 -20 -4 -23 -6 -4 -10 -1 -10 6
0 7 -8 5 -20 -6 -27 -24 -25 -10 3 25 25 33 29 34 45 18z m-843 -18 c24 -9 75
-59 75 -72 0 -6 -8 -7 -17 -3 -10 4 -30 11 -44 15 -15 4 -44 25 -65 45 l-39
37 35 -7 c19 -4 44 -11 55 -15z m445 -40 c-6 -12 -14 -19 -17 -16 -4 3 -12 1
-20 -5 -9 -8 -13 -8 -13 -1 0 12 51 55 57 48 3 -2 -1 -14 -7 -26z m64 14 c20
-8 21 -21 1 -21 -8 0 -15 4 -15 9 0 5 -4 6 -10 3 -5 -3 -10 -1 -10 4 0 12 11
14 34 5z m311 -24 c-3 -5 -11 -10 -16 -10 -6 0 -7 5 -4 10 3 6 11 10 16 10 6
0 7 -4 4 -10z m542 -119 l-12 -26 -3 32 c-2 17 -11 38 -22 48 -17 15 -21 14
-69 -32 -28 -27 -51 -53 -51 -58 0 -18 34 -45 57 -45 26 0 31 -15 7 -24 -11
-4 -33 8 -64 36 -48 43 -62 65 -36 55 7 -3 35 17 65 47 39 40 50 57 45 72 -4
11 15 -2 44 -30 47 -45 50 -50 39 -75z m-870 87 c-3 -8 -6 -5 -6 6 -1 11 2 17
5 13 3 -3 4 -12 1 -19z m403 -3 c0 -28 -25 -44 -43 -26 -8 8 -8 14 1 23 9 9
12 8 12 -6 0 -9 5 -14 10 -11 6 3 10 15 10 26 0 10 2 19 5 19 3 0 5 -11 5 -25z
m23 -6 c-9 -9 -12 -7 -10 9 1 14 5 18 11 12 7 -7 6 -14 -1 -21z m-1073 12 c0
-14 -18 -23 -30 -16 -6 4 -8 11 -5 16 8 12 35 12 35 0z m1110 -30 c0 -5 -9
-11 -20 -14 -11 -3 -20 -13 -20 -22 0 -12 5 -15 21 -10 15 5 19 4 15 -4 -11
-17 -46 -13 -53 5 -4 11 2 23 18 35 26 20 39 24 39 10z m30 -31 c0 -5 -4 -10
-10 -10 -5 0 -10 5 -10 10 0 6 5 10 10 10 6 0 10 -4 10 -10z m35 -56 c30 11
21 -10 -11 -26 -35 -18 -42 -11 -24 23 14 25 -7 26 -26 2 -11 -15 -13 -15 -14
-3 0 8 12 22 28 31 26 14 27 14 30 -9 2 -15 8 -22 17 -18z m277 10 c-22 -30
-30 -30 -28 -1 0 15 8 22 23 23 22 2 22 1 5 -22z m-1572 -14 c-31 -24 -6 -28
28 -4 31 21 57 25 78 9 17 -12 16 -14 -18 -31 -34 -16 -43 -16 -94 -4 l-56 14
22 18 c12 10 32 18 44 18 20 0 20 -1 -4 -20z m350 10 c0 -5 -7 -10 -16 -10 -8
0 -12 5 -9 10 3 6 10 10 16 10 5 0 9 -4 9 -10z m1368 -38 c-8 -1 -19 -20 -24
-42 l-11 -39 31 5 c48 9 58 13 51 24 -9 14 8 13 23 -2 13 -13 16 -29 5 -26 -5
1 -33 -1 -63 -6 -59 -8 -90 -28 -90 -58 0 -18 -1 -18 -24 -1 -21 16 -27 41 -7
28 11 -6 48 35 60 68 6 16 11 45 11 64 l0 36 26 -24 c18 -17 22 -25 12 -27z
m-1460 -21 c2 -18 0 -37 -5 -42 -5 -5 -7 9 -5 31 4 41 -4 50 -26 28 -14 -14
-27 -4 -17 12 4 6 17 10 28 8 17 -2 23 -11 25 -37z m247 10 c-3 -6 -11 -8 -17
-5 -6 4 -5 9 3 15 16 10 23 4 14 -10z m832 6 c-50 -33 -51 -33 -33 -40 10 -4
24 1 37 14 l21 21 -4 -24 c-4 -29 -42 -36 -69 -12 -19 17 -19 18 8 36 16 10
35 18 43 17 12 0 11 -3 -3 -12z m-1389 -9 c12 -12 17 -78 6 -78 -11 0 -43 45
-44 61 0 29 18 37 38 17z m75 -18 c15 0 67 -47 67 -60 0 -23 -62 -9 -91 20
-30 29 -31 57 -2 46 8 -3 20 -6 26 -6z m607 2 c0 -14 -11 -21 -26 -15 -8 3
-11 9 -8 14 7 11 34 12 34 1z m-611 -94 c71 2 81 0 91 -17 5 -11 10 -23 10
-26 0 -9 -87 0 -130 13 -31 10 -33 10 -15 -3 11 -8 26 -19 32 -25 15 -13 28
-58 19 -67 -9 -10 -46 28 -61 63 -7 18 -32 51 -54 73 -23 23 -41 47 -41 54 0
6 16 -6 34 -28 l34 -40 81 3z m1405 53 c3 -5 -10 -19 -30 -30 l-35 -21 6 21
c6 18 4 20 -14 14 -12 -3 -21 -2 -21 4 0 5 19 12 43 14 23 2 43 4 44 5 1 1 4
-2 7 -7z m-704 -31 c0 -5 -4 -10 -10 -10 -5 0 -10 5 -10 10 0 6 5 10 10 10 6
0 10 -4 10 -10z m730 2 c0 -4 -7 -18 -16 -30 -15 -22 -44 -30 -44 -12 0 6 6
10 14 10 8 0 18 9 21 20 6 19 25 28 25 12z m-787 -9 c-7 -2 -19 -2 -25 0 -7 3
-2 5 12 5 14 0 19 -2 13 -5z m814 -19 c-3 -3 -12 -4 -19 -1 -8 3 -5 6 6 6 11
1 17 -2 13 -5z m-1069 -35 c-3 -8 -7 -3 -11 10 -4 17 -3 21 5 13 5 -5 8 -16 6
-23z m226 -9 l7 -25 -15 25 c-17 28 -21 50 -7 35 5 -6 12 -21 15 -35z m876 10
c0 -5 -4 -10 -10 -10 -5 0 -10 5 -10 10 0 6 5 10 10 10 6 0 10 -4 10 -10z
m430 -51 c0 -4 -8 -5 -18 -2 -10 2 -26 -5 -36 -16 -16 -18 -17 -23 -5 -38 13
-16 12 -17 -3 -4 -16 12 -21 10 -43 -10 -13 -13 -25 -30 -25 -38 0 -11 -5 -10
-20 4 -21 19 -28 41 -9 29 15 -9 109 86 109 110 0 18 1 18 25 -4 14 -13 25
-27 25 -31z m-1460 31 c0 -5 -4 -10 -9 -10 -6 0 -13 5 -16 10 -3 6 1 10 9 10
9 0 16 -4 16 -10z m1054 -6 c9 -23 7 -31 -3 -15 -8 12 -13 12 -35 -2 -29 -19
-36 -21 -36 -8 0 9 44 37 61 40 4 1 10 -6 13 -15z m-1164 -34 c0 -5 -2 -10 -4
-10 -3 0 -8 5 -11 10 -3 6 -1 10 4 10 6 0 11 -4 11 -10z m1200 1 c0 -12 -61
-43 -69 -35 -3 4 -1 9 5 11 6 2 20 10 30 18 22 17 34 19 34 6z m-965 -11 c3
-5 -1 -10 -9 -10 -9 0 -16 5 -16 10 0 6 4 10 9 10 6 0 13 -4 16 -10z m-350
-20 c3 -5 1 -10 -4 -10 -6 0 -11 5 -11 10 0 6 2 10 4 10 3 0 8 -4 11 -10z
m1330 -36 c-23 -36 -30 -23 -9 18 10 18 19 27 22 20 2 -7 -4 -24 -13 -38z
m426 9 c16 -17 19 -24 8 -20 -20 7 -125 -96 -115 -112 11 -17 -7 -12 -31 8
-26 21 -30 36 -9 28 16 -7 70 46 59 58 -5 4 -3 5 3 2 14 -8 54 28 54 48 0 20
3 19 31 -12z m-457 2 c-4 -8 -11 -15 -16 -15 -6 0 -5 6 2 15 7 8 14 15 16 15
2 0 1 -7 -2 -15z m86 -26 c0 -5 -6 -9 -14 -9 -7 0 -19 -7 -26 -15 -7 -8 -17
-12 -22 -9 -6 4 2 17 17 30 26 22 45 24 45 3z m-1683 -39 c-6 -51 -52 -150
-70 -150 -13 0 -3 65 17 112 9 21 17 41 18 45 3 10 31 43 37 43 2 0 1 -23 -2
-50z m548 13 c-9 -50 -24 -75 -63 -108 -35 -29 -35 -25 -4 45 15 35 60 100 69
100 3 0 2 -17 -2 -37z m1405 27 c0 -5 -2 -10 -4 -10 -3 0 -8 5 -11 10 -3 6 -1
10 4 10 6 0 11 -4 11 -10z m-2125 -80 c-5 -8 -55 -20 -55 -13 0 2 7 11 15 19
8 9 15 30 16 47 l0 32 15 -39 c7 -21 12 -42 9 -46z m1899 44 c4 -9 4 -19 1
-22 -3 -3 -5 0 -5 6 0 7 -5 12 -11 12 -5 0 -7 -5 -3 -11 4 -8 0 -9 -15 -4 -22
7 -30 -10 -8 -18 6 -2 9 -8 5 -12 -4 -4 -16 2 -28 13 l-22 20 29 16 c36 20 49
20 57 0z m-1483 -21 c-4 -16 -6 -34 -3 -41 7 -22 -18 -67 -47 -85 -40 -24 -60
-22 -33 3 12 12 22 30 22 41 0 20 23 72 42 97 18 21 27 13 19 -15z m1323 -8
c8 -9 12 -23 9 -33 -10 -30 -44 -61 -60 -55 -12 5 -14 -3 -12 -43 3 -37 0 -53
-13 -67 -17 -16 -18 -16 -19 1 -1 9 -5 1 -9 -18 l-7 -35 -3 40 c-1 25 -4 32
-8 20 -4 -18 -5 -18 -11 -3 -5 13 -10 6 -22 -27 -19 -51 -17 -58 5 -17 11 20
15 22 16 9 0 -10 -4 -26 -10 -36 -7 -14 -5 -23 10 -36 19 -18 20 -17 27 16 l8
34 5 -45 6 -45 12 35 12 35 -3 -42 c-3 -44 7 -57 18 -24 5 17 -6 86 -21 125
-4 11 -2 16 7 14 23 -5 26 -16 24 -98 -1 -63 2 -77 12 -68 7 6 14 29 14 52 2
38 2 37 9 -14 7 -56 -4 -92 -24 -84 -6 2 -85 -71 -176 -162 -127 -128 -164
-172 -162 -189 2 -12 -4 -28 -14 -35 -14 -12 -24 -10 -78 18 -126 66 -244 177
-305 287 -15 28 -34 60 -41 73 -19 29 -3 57 34 57 21 1 62 36 187 160 88 88
165 170 170 183 7 19 16 22 66 22 32 0 64 -4 72 -9 8 -6 -3 -7 -30 -4 -29 3
-51 0 -62 -9 -17 -12 -9 -14 64 -15 55 0 84 -4 87 -12 3 -9 -10 -10 -50 -5
-29 3 -55 6 -58 6 -28 0 -40 -3 -40 -11 0 -5 17 -7 38 -4 20 2 48 0 62 -6 22
-10 20 -10 -15 -6 -22 3 -47 1 -55 -5 -11 -7 -2 -10 35 -11 28 0 61 -5 75 -10
19 -6 14 -7 -20 -4 -25 3 -52 1 -60 -5 -13 -8 -13 -11 1 -26 13 -12 21 -14 37
-5 11 6 27 11 34 11 7 -1 0 -8 -15 -16 -16 -9 -26 -18 -24 -21 3 -3 16 2 28
10 11 9 26 14 33 13 6 -2 8 -1 4 1 -5 3 -8 9 -8 15 0 7 5 7 14 -1 15 -12 76 4
76 20 0 5 -13 3 -29 -5 -27 -15 -41 -12 -41 6 0 5 9 7 19 3 11 -3 22 -1 26 5
3 5 -1 10 -9 10 -9 0 -16 6 -16 13 0 7 -3 8 -8 2 -13 -18 -34 -16 -30 2 2 10
11 16 19 15 15 -4 53 -5 82 -3 9 0 17 7 17 14 0 20 39 57 60 57 10 0 25 -7 34
-15z m206 -22 c0 -15 -2 -16 -10 -3 -8 13 -10 13 -10 -1 0 -9 -8 -23 -17 -30
-15 -12 -16 -12 -10 4 4 10 7 25 7 33 0 8 9 14 20 14 12 0 20 -7 20 -17z m-59
-20 c-8 -15 -10 -15 -11 -2 0 17 10 32 18 25 2 -3 -1 -13 -7 -23z m453 19 c3
-5 -11 -39 -31 -77 -19 -37 -35 -78 -35 -91 0 -30 -8 -30 -31 1 -14 19 -15 25
-4 25 8 0 19 11 25 24 8 19 7 27 -10 44 -17 17 -25 18 -44 10 -13 -6 -24 -17
-24 -25 0 -11 -4 -11 -20 -1 -25 16 -26 28 -2 28 9 0 49 15 87 34 78 38 82 40
89 28z m-1800 -44 c-9 -29 -8 -31 12 -34 30 -5 27 -14 -4 -14 -35 0 -39 11
-22 56 13 32 25 26 14 -8z m1465 -35 c-18 -33 -37 -40 -57 -20 -15 15 -13 19
13 45 25 26 31 27 43 15 13 -12 13 -18 1 -40z m-2009 32 c0 -8 -4 -15 -10 -15
-5 0 -7 7 -4 15 4 8 8 15 10 15 2 0 4 -7 4 -15z m47 -25 c-10 -27 -27 -41 -27
-22 1 24 14 52 25 52 11 0 11 -6 2 -30z m2023 -25 c10 -12 10 -19 2 -27 -9 -9
-12 -7 -12 11 0 12 -4 20 -10 16 -5 -3 -7 -13 -4 -23 5 -13 4 -14 -4 -3 -8 10
-12 9 -25 -9 -9 -13 -17 -17 -22 -11 -5 10 41 60 56 61 4 0 12 -7 19 -15z
m-1321 -19 c10 -9 27 -16 39 -16 11 0 23 -4 27 -9 8 -14 -59 -25 -107 -17 -43
7 -102 42 -93 56 9 14 115 3 134 -14z m1731 -27 c0 -5 -7 -6 -16 -2 -10 4 -32
-11 -65 -43 -27 -26 -49 -52 -49 -57 0 -16 45 -46 70 -47 l25 -1 -23 -11 c-20
-10 -28 -6 -67 32 -42 41 -60 70 -34 54 15 -9 109 86 109 110 0 18 1 18 25 -4
14 -13 25 -27 25 -31z m-2305 24 c-19 -15 -19 -15 8 -9 19 5 26 3 22 -4 -8
-13 -42 -13 -50 0 -9 14 3 30 23 30 15 -1 14 -3 -3 -17z m363 7 c23 -1 25 -2
9 -11 -9 -6 -15 -14 -12 -19 11 -18 -30 -20 -48 -1 -21 21 -14 46 10 37 8 -3
27 -6 41 -6z m1559 -54 c2 -39 -16 -52 -43 -32 -12 9 -14 15 -6 20 7 4 12 2
12 -3 0 -6 5 -11 10 -11 6 0 10 14 10 30 0 42 15 38 17 -4z m-1825 -21 c-2
-19 -8 -32 -13 -30 -4 3 -6 20 -3 38 l5 32 -15 -30 c-8 -16 -15 -24 -15 -17
-2 23 19 52 32 46 8 -3 11 -17 9 -39z m133 35 c-3 -5 -12 -10 -18 -10 -7 0 -6
4 3 10 19 12 23 12 15 0z m1729 -20 c13 0 46 -35 46 -49 0 -5 9 -11 20 -14 12
-3 20 -13 19 -24 -1 -16 -2 -16 -6 0 -2 9 -9 17 -15 17 -6 0 -8 -10 -5 -22 4
-12 2 -28 -4 -34 -15 -18 -39 -6 -38 20 0 21 0 21 9 -1 14 -34 21 -28 16 15
-3 20 -5 40 -5 45 -2 14 -20 7 -41 -15 -11 -12 -23 -18 -27 -15 -3 4 3 17 14
30 18 19 19 24 7 35 -8 7 -13 20 -13 30 1 16 2 16 6 0 2 -10 10 -18 17 -18z
m-94 16 c0 -3 -4 -8 -10 -11 -5 -3 -10 -1 -10 4 0 6 5 11 10 11 6 0 10 -2 10
-4z m-1721 -83 c0 -27 -3 -42 -6 -34 -4 10 -10 5 -19 -15 -10 -23 -13 -25 -13
-9 -1 11 6 33 14 49 8 15 15 35 15 42 0 8 2 14 5 14 3 0 5 -21 4 -47z m-305
17 c-13 -13 -54 -21 -54 -11 0 8 52 30 59 24 3 -2 0 -8 -5 -13z m456 5 c7 -8
9 -15 6 -15 -4 0 5 -11 20 -25 28 -26 26 -32 -6 -15 -16 8 -18 8 -14 -5 4 -8
1 -15 -5 -15 -6 0 -14 12 -17 26 -5 19 -9 22 -15 12 -10 -15 -11 -2 -3 30 7
26 17 28 34 7z m1197 -17 c-3 -8 -6 -5 -6 6 -1 11 2 17 5 13 3 -3 4 -12 1 -19z
m943 -42 c0 -6 -5 -5 -12 2 -9 9 -24 -1 -64 -41 -30 -29 -54 -56 -53 -62 0
-17 50 -47 70 -42 10 3 19 1 19 -4 0 -5 -11 -11 -24 -15 -20 -5 -32 3 -65 38
-39 41 -54 67 -30 52 15 -9 109 86 109 110 0 18 1 18 25 -4 14 -13 25 -28 25
-34z m-2020 34 c0 -5 -5 -10 -11 -10 -5 0 -7 5 -4 10 3 6 8 10 11 10 2 0 4 -4
4 -10z m48 -33 c12 -13 19 -27 15 -30 -3 -4 -7 -18 -9 -30 -2 -20 1 -23 22
-19 17 3 24 0 24 -11 0 -10 -8 -15 -22 -14 -28 2 -53 23 -38 32 5 3 10 11 10
17 0 6 -9 3 -20 -7 -27 -24 -26 -7 2 22 27 29 17 42 -11 14 -29 -29 -49 -26
-22 3 13 14 20 29 16 35 -12 20 11 11 33 -12z m1602 -22 c-9 -11 -9 -15 -1
-15 7 0 9 -5 5 -11 -5 -8 -9 -8 -14 1 -6 9 -10 7 -18 -6 -6 -10 -14 -15 -18
-11 -4 4 5 21 21 37 29 30 49 34 25 5z m27 -17 c-3 -8 -6 -5 -6 6 -1 11 2 17
5 13 3 -3 4 -12 1 -19z m-2148 -5 c-8 -9 -13 -26 -11 -37 2 -20 2 -20 -11 -3
-17 20 -38 22 -56 5 -11 -11 -13 -10 -9 1 2 8 11 18 19 21 8 4 23 12 34 18 11
6 26 11 34 11 11 1 11 -2 0 -16z m2181 -21 c0 -5 -9 -17 -20 -27 -25 -22 -25
-32 -2 -38 14 -4 14 -5 1 -6 -9 0 -22 6 -29 14 -11 13 -9 20 10 40 24 25 40
32 40 17z m-2152 -13 c-2 -6 -8 -10 -13 -10 -5 0 -11 4 -13 10 -2 6 4 11 13
11 9 0 15 -5 13 -11z m2092 1 c0 -5 -8 -10 -17 -10 -15 0 -16 2 -3 10 19 12
20 12 20 0z m-2030 -20 c0 -5 -4 -10 -10 -10 -5 0 -10 5 -10 10 0 6 5 10 10
10 6 0 10 -4 10 -10z m2140 -14 c0 -7 -10 -21 -22 -30 -22 -15 -22 -16 -5 -30
10 -8 14 -17 9 -20 -4 -3 -16 4 -26 15 -16 19 -16 21 6 49 25 32 38 37 38 16z
m402 -20 c6 -14 7 -33 3 -43 -8 -19 -9 -16 -19 30 -7 30 -27 35 -46 12 -11
-13 -10 -23 0 -56 16 -48 7 -69 -33 -80 -33 -9 -67 14 -67 46 0 37 18 39 22 3
2 -28 7 -33 28 -33 23 0 25 3 23 40 -1 22 -3 48 -3 58 -3 49 71 67 92 23z
m-2014 -40 c-10 -19 -10 -20 5 -8 17 14 37 9 37 -10 0 -5 -6 -8 -14 -5 -8 3
-17 1 -20 -6 -7 -19 -27 15 -20 36 3 9 1 17 -5 17 -6 0 -11 -5 -11 -12 0 -6
-3 -8 -6 -5 -4 4 -1 13 6 22 20 24 43 0 28 -29z m-437 -11 c6 -27 9 -26 13 5
2 17 18 16 29 -2 12 -18 -5 -48 -28 -48 -7 0 -18 -7 -25 -15 -11 -13 -8 -14
21 -9 19 3 48 13 66 22 36 18 57 9 27 -12 -18 -13 -17 -15 16 -21 20 -3 40 -6
45 -5 25 5 45 -1 45 -14 0 -10 -7 -12 -22 -8 -22 5 -22 4 -5 -15 21 -24 22
-39 1 -47 -24 -9 -54 12 -60 44 -7 30 -34 50 -34 25 0 -19 -24 -19 -40 0 -14
17 -41 20 -55 6 -6 -5 -23 -11 -40 -13 l-30 -4 28 -12 c15 -6 27 -16 27 -22 0
-16 -30 -24 -43 -11 -6 6 -24 11 -39 11 -28 0 -28 0 -12 25 9 14 14 34 11 46
-7 28 1 49 20 49 11 0 14 -9 11 -35 -4 -39 -4 -39 23 -25 19 11 27 40 10 40
-17 0 -22 38 -9 60 18 28 42 21 49 -15z m2095 19 c-3 -9 -6 -22 -6 -30 0 -9
-5 -12 -11 -8 -6 3 -15 0 -20 -7 -4 -7 -11 -10 -15 -7 -7 8 36 67 50 67 4 1 5
-6 2 -15z m21 -26 c-3 -8 -6 -5 -6 6 -1 11 2 17 5 13 3 -3 4 -12 1 -19z
m-1622 -30 c-5 -17 -4 -19 3 -9 9 12 12 12 26 -1 14 -14 13 -16 -6 -21 -32 -9
-47 4 -37 31 5 12 11 22 14 22 4 0 3 -10 0 -22z m1180 -71 c-9 -29 -21 -57
-27 -64 -8 -10 -88 -56 -88 -50 0 1 7 24 15 52 11 35 30 64 63 96 54 53 63 45
37 -34z m493 55 c2 -15 -2 -22 -12 -22 -9 0 -16 -8 -16 -20 0 -11 -5 -20 -11
-20 -7 0 -9 10 -4 27 5 23 4 25 -10 13 -26 -22 -30 -2 -5 25 28 30 54 29 58
-3z m-2288 8 c0 -5 -7 -7 -15 -4 -8 4 -15 8 -15 10 0 2 7 4 15 4 8 0 15 -4 15
-10z m2207 -6 c-3 -3 -12 -4 -19 -1 -8 3 -5 6 6 6 11 1 17 -2 13 -5z m-1496
-37 c-16 -16 7 -41 25 -26 24 20 15 -6 -10 -30 -14 -13 -26 -18 -30 -13 -3 6
-1 12 6 14 7 3 9 12 5 22 -7 18 -8 18 -27 1 -11 -10 -20 -15 -20 -11 0 14 45
63 53 59 5 -3 4 -10 -2 -16z m-703 2 c-2 -6 -8 -10 -13 -10 -5 0 -11 4 -13 10
-2 6 4 11 13 11 9 0 15 -5 13 -11z m1580 -26 c18 -13 40 -35 48 -48 33 -50 39
-145 10 -145 -7 0 -21 7 -32 15 -18 15 -18 15 7 9 32 -7 40 9 30 57 -5 27 -13
36 -41 45 -34 11 -110 75 -110 92 0 16 54 0 88 -25z m-1025 -22 c-4 -16 -8
-19 -14 -10 -4 7 -3 19 3 26 14 18 19 12 11 -16z m-374 3 c24 -5 31 -12 31
-31 0 -14 -4 -21 -10 -18 -5 3 -10 -1 -10 -9 0 -21 -9 -20 -27 2 -14 16 -14
16 -9 0 6 -22 -7 -24 -23 -4 -12 14 -5 66 9 66 4 0 22 -3 39 -6z m409 -31
c-14 -18 -19 -12 -11 16 4 16 8 19 14 10 4 -7 3 -19 -3 -26z m160 5 c-8 -12
-21 -24 -29 -26 -8 -3 -3 7 10 22 30 32 39 34 19 4z m12 -33 c-13 -14 -26 -23
-28 -20 -3 3 5 16 18 30 13 14 26 23 28 20 3 -3 -5 -16 -18 -30z m-137 14 c-6
-6 -9 -19 -6 -28 4 -13 3 -13 -5 -2 -12 16 -5 41 11 41 8 0 8 -3 0 -11z m-558
-15 c29 -7 45 -20 45 -38 0 -4 -7 -5 -16 -2 -13 5 -15 2 -11 -14 4 -14 -1 -24
-16 -31 -27 -15 -48 12 -40 52 4 22 2 29 -11 29 -9 0 -16 5 -16 11 0 6 8 8 18
5 9 -3 31 -8 47 -12z m585 -1 c0 -5 -5 -15 -10 -23 -8 -12 -10 -11 -10 8 0 12
5 22 10 22 6 0 10 -3 10 -7z m150 -23 c0 -4 -7 -13 -15 -20 -13 -11 -15 -8
-15 13 0 19 4 25 15 21 8 -4 15 -10 15 -14z m-104 -23 c21 8 17 -10 -6 -24
-16 -11 -18 -10 -13 3 3 8 2 14 -3 13 -21 -4 -35 2 -29 11 4 6 11 8 16 5 5 -4
10 2 10 12 1 13 3 12 6 -4 3 -14 9 -20 19 -16z m117 -12 c-22 -17 -30 -11 -13
10 7 8 17 12 22 9 5 -3 1 -12 -9 -19z m-479 -22 c19 -111 20 -108 -13 -146
-17 -19 -28 -37 -24 -39 5 -3 4 -4 -2 -3 -5 1 -19 -7 -30 -17 -12 -12 -14 -18
-6 -16 7 2 15 -2 18 -9 3 -7 -3 -9 -16 -6 -12 3 -21 9 -21 14 0 16 5 24 13 21
4 -1 16 13 27 30 17 27 20 43 14 91 -6 56 8 117 26 117 4 0 11 -17 14 -37z
m133 5 c-1 -46 2 -51 38 -45 19 3 37 3 39 -1 2 -4 -10 -8 -26 -9 -17 -1 -36
-8 -44 -14 -8 -6 -14 -8 -15 -3 -7 57 -6 84 0 84 5 0 9 -6 8 -12z m20 -10 c-3
-8 -6 -5 -6 6 -1 11 2 17 5 13 3 -3 4 -12 1 -19z m375 8 c6 4 9 1 7 -5 -3 -7
-9 -13 -14 -13 -6 0 -16 -4 -22 -10 -16 -13 -16 -3 -1 25 7 14 13 17 16 9 2
-6 8 -9 14 -6z m-160 -18 c-7 -7 -12 -8 -12 -2 0 14 12 26 19 19 2 -3 -1 -11
-7 -17z m980 -17 c-7 -19 -7 -31 -1 -31 5 0 9 4 9 10 0 5 7 7 15 4 20 -8 9
-24 -16 -24 -25 0 -25 -30 1 -63 12 -15 17 -32 14 -42 -5 -13 -12 -5 -26 31
-10 27 -18 56 -18 64 0 25 21 92 27 86 3 -3 1 -19 -5 -35z m-937 9 c-3 -5 -12
-10 -18 -10 -7 0 -6 4 3 10 19 12 23 12 15 0z m178 -37 c-3 -17 -12 -34 -20
-37 -11 -5 -13 -2 -8 11 8 21 13 43 14 63 1 8 4 10 10 5 5 -6 7 -24 4 -42z
m-149 21 c3 -8 2 -12 -3 -9 -5 3 -12 1 -16 -5 -3 -5 -11 -10 -17 -10 -6 0 -3
9 7 20 22 24 21 24 29 4z m36 6 c0 -5 -2 -10 -4 -10 -3 0 -8 5 -11 10 -3 6 -1
10 4 10 6 0 11 -4 11 -10z m-24 -54 c-1 -18 -4 -22 -13 -14 -6 5 -9 16 -6 24
8 23 21 16 19 -10z m184 16 c0 -14 -49 -56 -57 -49 -3 4 2 14 13 22 10 8 15
15 9 15 -5 0 -3 5 5 10 19 12 30 13 30 2z m-150 -17 c0 -8 -4 -15 -10 -15 -5
0 -7 7 -4 15 4 8 8 15 10 15 2 0 4 -7 4 -15z m-366 -17 c-5 -7 -2 -9 8 -6 8 4
21 2 29 -3 11 -7 11 -9 1 -9 -7 0 -10 -5 -7 -10 4 -6 -5 -5 -19 2 -14 6 -26
15 -26 20 0 5 -6 6 -12 2 -9 -5 -9 -3 1 9 14 18 36 13 25 -5z m43 16 c-3 -3
-12 -4 -19 -1 -8 3 -5 6 6 6 11 1 17 -2 13 -5z m1308 -4 c-4 -7 2 -9 19 -4 33
8 34 -7 1 -23 -19 -8 -23 -8 -19 0 5 9 4 9 -6 0 -16 -14 -40 -6 -40 14 0 9 6
13 15 10 8 -4 17 -2 20 3 4 6 8 10 11 10 3 0 2 -5 -1 -10z m351 -20 c57 -28
65 -35 74 -70 6 -22 7 -52 3 -68 -7 -26 -11 -28 -38 -20 -24 6 -38 22 -70 84
-22 42 -49 82 -60 90 -38 27 22 16 91 -16z m-1326 -10 c-24 -15 -36 -11 -14 4
10 8 21 12 24 10 2 -3 -2 -9 -10 -14z m770 -10 c32 -17 78 -126 60 -144 -7 -7
-10 0 -10 17 0 32 -40 77 -67 77 -19 0 -93 55 -93 69 0 10 83 -4 110 -19z
m-1204 -12 c-9 -12 -16 -19 -16 -15 0 11 24 47 28 42 2 -2 -3 -14 -12 -27z
m584 18 c0 -20 -27 -40 -32 -24 -5 13 11 37 25 38 4 0 7 -6 7 -14z m-110 -21
c-7 -8 -17 -15 -22 -15 -11 0 14 29 26 30 5 0 3 -7 -4 -15z m147 -11 c3 -8 -2
-23 -11 -32 -9 -10 -16 -12 -16 -5 0 7 5 15 10 18 6 3 10 11 10 17 0 6 -9 3
-20 -7 -21 -19 -28 -7 -8 13 16 16 27 15 35 -4z m-133 -28 c-10 -8 -21 -12
-24 -9 -3 2 3 9 13 14 9 6 14 16 11 22 -5 8 -3 8 6 0 12 -11 11 -15 -6 -27z
m913 9 c12 1 20 -2 17 -7 -4 -5 -12 -7 -19 -4 -17 6 -28 -21 -12 -28 7 -2 2
-4 -10 -2 -32 3 -36 11 -23 36 7 13 15 18 19 13 3 -6 16 -9 28 -8z m-1412 -5
c4 -6 -7 -10 -27 -9 -27 0 -30 2 -13 9 27 12 33 12 40 0z m665 3 c-1 -15 -30
-46 -37 -40 -3 4 2 16 12 27 19 21 25 24 25 13z m-570 -39 c0 -8 4 -13 9 -9 5
3 12 1 16 -5 3 -5 -2 -10 -11 -10 -16 0 -16 -2 1 -20 16 -17 16 -20 3 -15 -9
4 -19 13 -22 21 -3 8 -11 14 -19 14 -7 0 -13 9 -14 20 -1 14 4 20 18 20 11 0
19 -7 19 -16z m449 -1 c-7 -10 -14 -19 -15 -21 -1 -1 -4 6 -7 18 -4 15 0 20
15 20 18 0 19 -2 7 -17z m155 -14 c-4 -6 -11 -6 -20 2 -11 9 -14 8 -15 -7 0
-11 -3 -14 -6 -6 -3 7 -2 19 1 28 4 12 10 13 26 4 11 -6 18 -15 14 -21z m-864
17 c0 -2 -7 -7 -16 -10 -8 -3 -12 -2 -9 4 6 10 25 14 25 6z m881 -39 c-29 -29
-37 -15 -9 16 13 14 25 21 27 15 2 -5 -6 -19 -18 -31z m-771 23 c0 -5 -2 -10
-4 -10 -3 0 -8 5 -11 10 -3 6 -1 10 4 10 6 0 11 -4 11 -10z m642 -8 c3 -10 -1
-23 -9 -30 -11 -11 -13 -7 -13 18 0 33 15 41 22 12z m-562 -1 c0 -5 -11 -8
-24 -7 -13 0 -22 4 -19 9 6 10 43 9 43 -2z m735 0 c3 -5 1 -12 -5 -16 -5 -3
-10 1 -10 9 0 18 6 21 15 7z m671 -31 c8 0 14 -4 14 -10 0 -5 -2 -10 -5 -10
-12 0 -55 33 -55 42 0 5 7 2 16 -6 8 -9 22 -16 30 -16z m-1431 10 c-3 -5 -12
-10 -18 -10 -7 0 -6 4 3 10 19 12 23 12 15 0z m-44 -67 l-7 -28 -7 25 c-4 14
-3 26 2 28 5 2 7 13 5 25 l-5 22 10 -22 c5 -12 6 -34 2 -50z m73 51 c3 -8 2
-12 -4 -9 -6 3 -10 10 -10 16 0 14 7 11 14 -7z m1294 -2 c-10 -2 -18 -7 -18
-12 0 -4 -9 -10 -20 -13 -11 -3 -20 -1 -20 4 0 5 7 9 15 9 8 0 15 6 15 14 0
10 7 12 23 8 18 -5 19 -7 5 -10z m16 -23 c-3 -6 0 -15 7 -20 7 -4 10 -11 6
-15 -3 -4 -13 -1 -22 6 -12 10 -13 16 -4 26 14 17 23 19 13 3z m-450 -28 c-10
-10 -21 -16 -24 -14 -3 3 4 11 14 19 28 20 33 17 10 -5z m383 -13 c-3 -8 -6
-5 -6 6 -1 11 2 17 5 13 3 -3 4 -12 1 -19z m-142 -17 c33 -15 79 -47 102 -70
40 -41 42 -42 46 -19 2 13 5 6 6 -19 l1 -41 -28 26 c-33 31 -65 48 -106 57
-38 8 -130 94 -101 95 11 0 47 -13 80 -29z m165 -11 c0 -23 -4 -30 -20 -30
-24 0 -25 5 -2 35 22 31 22 31 22 -5z m-469 -7 c-12 -20 -14 -14 -5 12 4 9 9
14 11 11 3 -2 0 -13 -6 -23z m429 7 c0 -5 -4 -10 -10 -10 -5 0 -10 5 -10 10 0
6 5 10 10 10 6 0 10 -4 10 -10z m-830 -20 c0 -5 -5 -10 -11 -10 -5 0 -7 5 -4
10 3 6 8 10 11 10 2 0 4 -4 4 -10z m40 -10 c0 -5 -2 -10 -4 -10 -3 0 -8 5 -11
10 -3 6 -1 10 4 10 6 0 11 -4 11 -10z m74 -85 c2 -7 -4 -15 -15 -18 -15 -4
-19 0 -19 19 0 25 24 25 34 -1z m367 -8 c-10 -9 -11 -8 -5 6 3 10 9 15 12 12
3 -3 0 -11 -7 -18z"/>
<path d="M15595 3069 c-11 -17 1 -21 15 -4 8 9 8 15 2 15 -6 0 -14 -5 -17 -11z"/>
<path d="M14298 2979 c-22 -13 -23 -48 -2 -56 21 -8 57 28 48 50 -7 19 -21 21
-46 6z"/>
<path d="M14448 2619 c-41 -16 -37 -45 7 -53 28 -6 42 -2 66 15 16 11 28 26
26 33 -5 15 -65 18 -99 5z"/>
<path d="M15250 2521 c0 -5 32 -43 71 -85 79 -84 123 -104 159 -71 18 16 18
20 4 44 -21 35 -66 65 -144 96 -68 27 -90 31 -90 16z"/>
<path d="M14879 2341 c-71 -48 -82 -63 -80 -122 1 -61 11 -76 56 -85 68 -12
159 59 171 134 6 40 -5 58 -21 32 -8 -12 -55 -13 -55 -1 0 5 8 7 18 4 10 -2
24 3 31 11 8 9 9 16 3 16 -6 0 -17 3 -25 6 -8 3 -21 -2 -30 -11 -10 -9 -18
-11 -22 -5 -7 12 43 33 62 26 7 -3 13 -1 13 4 0 6 -8 10 -17 10 -10 0 -27 3
-38 6 -12 3 -37 -6 -66 -25z"/>
<path d="M14150 2791 c-14 -28 -13 -38 7 -46 25 -9 58 32 42 51 -16 20 -37 17
-49 -5z"/>
<path d="M13928 2583 c-2 -4 -3 -14 -2 -20 1 -7 2 -24 3 -38 0 -14 6 -25 12
-25 6 0 9 6 6 14 -4 9 3 17 16 21 22 7 22 7 -3 16 -22 8 -21 8 8 4 33 -5 45 9
15 18 -10 2 -25 8 -34 12 -10 3 -19 3 -21 -2z"/>
<path d="M13753 2473 c1 -26 8 -28 25 -11 17 17 15 33 -2 19 -11 -9 -15 -9
-19 1 -3 7 -4 3 -4 -9z"/>
<path d="M13680 2415 c-7 -9 -11 -17 -9 -20 3 -2 10 5 17 15 14 24 10 26 -8 5z"/>
<path d="M13920 2420 c0 -5 5 -10 10 -10 6 0 10 5 10 10 0 6 -4 10 -10 10 -5
0 -10 -4 -10 -10z"/>
<path d="M13701 2403 c-7 -8 -11 -16 -8 -19 2 -2 10 2 17 11 17 20 9 27 -9 8z"/>
<path d="M13898 2393 c6 -2 18 -2 25 0 6 3 1 5 -13 5 -14 0 -19 -2 -12 -5z"/>
<path d="M14031 2375 c-1 -21 -4 -26 -10 -16 -6 9 -11 10 -15 2 -4 -6 -2 -11
4 -11 6 0 8 -4 5 -10 -3 -5 -2 -10 2 -10 16 0 30 35 22 55 -6 17 -8 15 -8 -10z"/>
<path d="M13075 2040 c3 -5 10 -10 16 -10 5 0 9 5 9 10 0 6 -7 10 -16 10 -8 0
-12 -4 -9 -10z"/>
<path d="M14682 2017 c-22 -13 -22 -14 -5 -30 17 -15 19 -15 31 3 24 39 14 49
-26 27z"/>
<path d="M14890 1262 c-18 -14 -22 -25 -16 -45 6 -26 7 -26 39 -14 26 11 32
19 32 43 0 35 -23 42 -55 16z"/>
<path d="M14358 1043 c-119 -119 -155 -162 -148 -172 7 -12 43 20 164 139 135
133 179 190 148 190 -4 0 -78 -71 -164 -157z"/>
<path d="M14376 991 c-141 -141 -148 -150 -136 -172 7 -13 14 -26 16 -28 4 -5
294 280 305 301 12 22 1 48 -20 48 -9 0 -83 -67 -165 -149z"/>
<path d="M14743 1119 c-47 -20 -50 -24 -30 -43 11 -11 20 -8 50 20 43 40 37
48 -20 23z"/>
<path d="M14850 1126 c0 -8 4 -17 9 -20 5 -4 7 3 4 14 -6 23 -13 26 -13 6z"/>
<path d="M14764 1082 c-20 -26 -22 -52 -3 -52 4 0 15 13 24 30 28 54 15 68
-21 22z"/>
<path d="M14438 948 c-71 -71 -128 -130 -128 -133 0 -8 36 4 84 29 27 15 55
26 62 26 14 0 64 56 64 73 0 7 9 23 20 37 15 19 22 22 31 13 9 -9 16 -7 30 12
11 13 19 29 19 37 0 19 -21 38 -39 36 -9 -1 -73 -59 -143 -130z"/>
<path d="M14597 982 c-32 -34 -34 -42 -7 -42 13 0 20 7 20 18 0 24 19 42 36
35 8 -3 14 0 14 6 0 21 -36 11 -63 -17z"/>
<path d="M14663 966 c-8 -27 -8 -33 2 -30 16 7 25 38 16 53 -5 7 -12 -3 -18
-23z"/>
<path d="M14598 853 c-54 -54 -98 -106 -98 -116 0 -10 -5 -27 -11 -38 -5 -11
-9 -30 -7 -42 2 -18 24 -1 136 109 108 106 133 136 130 155 -2 17 -10 25 -28
27 -20 2 -44 -17 -122 -95z"/>
<path d="M14620 920 c0 -6 -13 -24 -30 -42 -44 -46 -37 -49 10 -3 21 21 37 42
34 47 -7 11 -14 10 -14 -2z"/>
<path d="M14616 744 c-86 -86 -155 -158 -154 -159 2 -1 13 -8 26 -14 28 -15
16 -25 199 158 133 132 152 163 107 169 -15 2 -62 -38 -178 -154z"/>
<path d="M14681 705 c-121 -121 -152 -158 -143 -167 10 -10 47 22 172 147 88
88 160 163 160 167 0 30 -54 -13 -189 -147z"/>
<path d="M14270 772 c0 -5 11 -19 25 -32 28 -26 33 -16 9 18 -15 22 -34 30
-34 14z"/>
<path d="M14330 703 c0 -12 38 -48 45 -41 3 2 -6 15 -20 28 -14 13 -25 19 -25
13z"/>
<path d="M14396 641 c-6 -8 42 -46 49 -39 2 2 -7 13 -20 26 -13 12 -26 18 -29
13z"/>
<path d="M15483 1220 c-28 -11 -29 -21 -4 -37 16 -10 20 -8 30 13 17 38 15 40
-26 24z"/>
<path d="M15187 1182 c-19 -20 -23 -37 -7 -27 10 6 33 45 27 45 -2 0 -11 -8
-20 -18z"/>
<path d="M13470 798 c0 -18 18 -34 28 -24 3 4 -2 14 -11 23 -16 16 -17 16 -17
1z"/>
<path d="M15657 753 c-4 -3 -7 -11 -7 -17 0 -6 5 -5 12 2 6 6 9 14 7 17 -3 3
-9 2 -12 -2z"/>
<path d="M15155 329 c-4 -6 -5 -12 -2 -15 2 -3 7 2 10 11 7 17 1 20 -8 4z"/>
<path d="M15966 3697 c-16 -12 -16 -14 -3 -26 13 -10 17 -9 26 8 19 34 9 42
-23 18z"/>
<path d="M16070 3619 c0 -8 6 -23 13 -34 11 -13 16 -15 22 -6 4 8 -1 21 -14
34 -16 17 -21 18 -21 6z"/>
<path d="M16120 3560 c0 -5 5 -10 10 -10 6 0 10 5 10 10 0 6 -4 10 -10 10 -5
0 -10 -4 -10 -10z"/>
<path d="M16806 2874 c-9 -23 -2 -28 13 -10 7 8 8 17 3 20 -6 3 -13 -1 -16
-10z"/>
<path d="M16265 2724 c-34 -37 -31 -55 15 -101 31 -31 45 -39 65 -35 31 6 65
46 65 78 0 19 -6 24 -27 25 -16 1 -34 1 -42 0 -7 -2 -10 2 -6 8 3 6 12 11 20
11 20 0 30 21 14 31 -29 18 -79 10 -104 -17z"/>
<path d="M16800 2380 c-9 -6 -10 -10 -3 -10 6 0 15 5 18 10 8 12 4 12 -15 0z"/>
<path d="M16834 2373 c3 -6 1 -13 -6 -15 -7 -3 -8 -10 -3 -17 6 -11 10 -10 17
4 7 12 6 21 -2 28 -10 9 -11 9 -6 0z"/>
<path d="M16860 2309 c-10 -6 -11 -9 -3 -9 7 0 27 -16 44 -35 37 -40 49 -44
49 -14 0 11 -4 18 -9 14 -5 -3 -18 5 -28 18 -25 31 -36 37 -53 26z"/>
<path d="M16964 2227 c-9 -10 -4 -21 17 -45 34 -38 44 -28 21 21 -18 40 -21
43 -38 24z m26 -17 c0 -5 -4 -10 -10 -10 -5 0 -10 5 -10 10 0 6 5 10 10 10 6
0 10 -4 10 -10z"/>
<path d="M16630 2100 c-7 -16 -16 -30 -21 -30 -11 0 -23 -39 -23 -82 -1 -42 1
-44 28 -23 20 15 20 15 0 30 -19 14 -18 16 13 75 18 33 29 60 24 60 -5 0 -14
-13 -21 -30z"/>
<path d="M16804 2060 c-28 -11 -62 -60 -70 -99 -4 -17 -22 -44 -40 -61 -19
-16 -34 -32 -34 -35 0 -3 19 -5 41 -5 33 0 47 6 65 28 13 15 24 30 24 35 0 4
5 7 10 7 7 0 7 -6 0 -19 -17 -33 -11 -55 21 -74 l32 -18 -6 -77 c-8 -92 0
-111 31 -82 30 28 36 62 23 115 -16 63 -14 88 10 114 30 32 39 72 24 107 -20
49 -87 81 -131 64z m28 -112 c-6 -6 -15 -8 -19 -4 -4 4 -1 11 7 16 19 12 27 3
12 -12z"/>
<path d="M16642 2020 c0 -14 2 -19 5 -12 2 6 2 18 0 25 -3 6 -5 1 -5 -13z"/>
<path d="M16431 1834 c0 -11 3 -14 6 -6 3 7 2 16 -1 19 -3 4 -6 -2 -5 -13z"/>
<path d="M690 1820 c-20 -37 7 -154 74 -328 20 -52 36 -96 36 -99 0 -3 -17 5
-37 17 -53 31 -109 32 -134 1 -10 -13 -19 -35 -19 -50 0 -56 65 -162 177 -289
l53 -59 -42 0 c-31 0 -46 -6 -60 -22 -16 -21 -16 -26 -3 -59 9 -19 21 -42 28
-50 8 -10 -1 -8 -28 5 -164 83 -335 100 -335 32 0 -28 76 -106 165 -169 73
-53 80 -69 30 -70 -31 0 -65 -28 -65 -55 0 -48 89 -100 244 -142 33 -9 63 -18
65 -20 2 -1 -3 -11 -12 -21 -25 -27 -21 -57 11 -78 27 -19 26 -19 -167 -24
-143 -4 -195 -8 -199 -17 -3 -10 354 -13 1761 -13 l1765 0 76 -94 75 -95 91
-3 c49 -2 90 1 90 5 0 4 -29 43 -65 86 -36 43 -65 84 -65 90 0 8 184 11 660
11 580 0 660 2 660 15 0 13 -21 15 -131 15 l-130 0 28 24 c25 21 26 26 15 50
-13 30 -18 26 63 47 90 22 165 69 165 103 0 13 -34 36 -55 36 -38 0 -37 16 3
42 46 31 152 127 152 138 0 5 -7 16 -16 24 -29 29 -129 14 -222 -33 -52 -26
-57 -26 -38 1 34 49 3 103 -45 78 -35 -20 -34 -1 2 38 121 128 176 241 137
280 -16 16 -57 15 -92 -3 -16 -9 -31 -14 -33 -11 -2 2 10 38 27 81 32 80 60
183 60 222 0 12 -9 27 -20 33 -15 8 -18 8 -14 -3 2 -8 -14 -44 -37 -82 -23
-38 -53 -89 -67 -114 -14 -25 -34 -62 -45 -81 -10 -19 -57 -101 -103 -181 -46
-81 -84 -149 -84 -153 0 -4 -5 -12 -11 -19 -5 -7 -46 -75 -90 -152 -70 -123
-79 -144 -74 -175 9 -48 53 -145 76 -166 11 -9 19 -21 19 -26 0 -4 -177 -8
-393 -8 l-392 0 -65 78 c-93 110 -147 160 -189 172 -20 5 -82 10 -138 10 -91
0 -105 -2 -124 -21 -11 -11 -19 -22 -17 -25 3 -2 42 -4 87 -5 91 -1 99 -6 158
-94 15 -22 40 -57 56 -78 l29 -37 -1265 2 -1265 3 -43 30 c-80 56 -89 80 -89
224 1 79 6 140 14 164 10 27 10 35 2 28 -9 -7 -20 5 -42 47 -17 31 -54 98 -83
147 -29 50 -68 118 -87 152 -49 91 -58 106 -71 121 -7 7 -13 17 -13 22 0 5
-32 63 -70 130 -39 66 -87 151 -107 188 -20 37 -40 69 -44 70 -5 2 -9 8 -9 14
0 5 -19 42 -42 81 -23 40 -41 75 -40 80 5 16 -18 6 -28 -13z"/>
<path d="M803 1815 c0 -8 4 -12 9 -9 5 3 6 10 3 15 -9 13 -12 11 -12 -6z"/>
<path d="M17391 1805 c-1 -26 26 -65 45 -65 8 0 13 -4 10 -9 -7 -11 32 -46 42
-37 4 4 -1 13 -11 20 -9 7 -17 18 -17 24 0 11 -29 26 -44 23 -5 -1 -3 5 4 14
7 8 10 19 6 22 -4 4 -11 1 -16 -6 -6 -11 -9 -8 -13 10 -3 19 -5 20 -6 4z"/>
<path d="M842 1786 c7 -8 15 -12 17 -11 5 6 -10 25 -20 25 -5 0 -4 -6 3 -14z"/>
<path d="M16513 1773 c9 -2 25 -2 35 0 9 3 1 5 -18 5 -19 0 -27 -2 -17 -5z"/>
<path d="M879 1757 c6 -8 9 -16 6 -19 -3 -2 2 -5 10 -5 13 0 13 3 -2 19 -19
21 -31 25 -14 5z"/>
<path d="M2328 1760 c-53 -9 -151 -40 -145 -46 2 -2 19 1 38 6 60 17 183 11
311 -16 278 -58 1029 -299 1063 -340 16 -19 140 -64 178 -64 18 0 56 7 83 15
27 8 64 15 82 15 28 0 35 -5 43 -30 6 -16 14 -30 17 -30 52 4 258 66 305 93
50 28 67 62 67 135 0 49 -5 66 -29 98 -88 122 -222 172 -431 160 -139 -7 -330
-39 -362 -60 -61 -39 -182 -68 -308 -74 -141 -5 -218 7 -344 58 -171 68 -427
104 -568 80z"/>
<path d="M16611 1763 c24 -4 27 -9 31 -52 3 -27 19 -79 37 -117 l33 -69 30 95
c16 52 34 103 39 112 11 22 -4 25 -116 31 -44 2 -68 2 -54 0z"/>
<path d="M15501 1656 l-93 -93 28 -27 c16 -14 39 -26 51 -26 12 0 28 -3 37 -6
22 -8 20 15 -1 32 -16 12 -11 20 56 88 65 65 73 77 61 91 -34 41 -43 38 -139
-59z"/>
<path d="M17287 1714 c-8 -8 1 -24 14 -24 5 0 9 7 9 15 0 15 -12 20 -23 9z"/>
<path d="M16553 1703 c9 -2 25 -2 35 0 9 3 1 5 -18 5 -19 0 -27 -2 -17 -5z"/>
<path d="M17245 1676 c-33 -14 -59 -40 -53 -55 1 -5 23 9 47 30 24 21 42 39
40 39 -2 -1 -18 -7 -34 -14z"/>
<path d="M17510 1675 c-10 -12 -10 -15 4 -15 9 0 16 7 16 15 0 8 -2 15 -4 15
-2 0 -9 -7 -16 -15z"/>
<path d="M17530 1645 c0 -10 39 -43 44 -37 3 3 6 -2 6 -12 0 -10 5 -14 11 -10
7 4 0 17 -17 35 -25 27 -44 37 -44 24z"/>
<path d="M1200 1636 c0 -2 8 -10 18 -17 15 -13 16 -12 3 4 -13 16 -21 21 -21
13z"/>
<path d="M1085 1609 c-4 -6 -5 -12 -2 -15 2 -3 7 2 10 11 7 17 1 20 -8 4z"/>
<path d="M17410 1560 c20 -13 43 -13 35 0 -3 6 -16 10 -28 10 -18 0 -19 -2 -7
-10z"/>
<path d="M16819 1543 c-13 -16 -12 -17 4 -4 16 13 21 21 13 21 -2 0 -10 -8
-17 -17z"/>
<path d="M17122 1530 c0 -14 2 -19 5 -12 2 6 2 18 0 25 -3 6 -5 1 -5 -13z"/>
<path d="M16791 1446 c44 -47 56 -56 43 -33 -12 22 -48 59 -67 69 -10 5 1 -11
24 -36z"/>
<path d="M17021 1449 c-12 -28 -11 -36 9 -79 12 -26 33 -60 47 -76 l24 -29 -8
35 c-4 19 -7 53 -6 75 0 25 -2 33 -6 21 -6 -15 -10 -11 -23 20 -9 22 -18 45
-20 52 -2 6 -9 -2 -17 -19z"/>
<path d="M5264 1438 l-19 -23 23 19 c21 18 27 26 19 26 -2 0 -12 -10 -23 -22z"/>
<path d="M17091 1434 c0 -11 3 -14 6 -6 3 7 2 16 -1 19 -3 4 -6 -2 -5 -13z"/>
<path d="M17305 1430 c-10 -11 -13 -20 -7 -20 6 0 16 9 22 20 6 11 9 20 7 20
-2 0 -12 -9 -22 -20z"/>
<path d="M5216 1384 c-5 -14 -4 -15 9 -4 17 14 19 20 6 20 -5 0 -12 -7 -15
-16z"/>
<path d="M16850 1394 c0 -5 25 -34 55 -64 30 -30 55 -51 55 -47 0 4 -25 33
-55 64 -30 32 -55 53 -55 47z"/>
<path d="M1433 1375 c0 -8 4 -12 9 -9 5 3 6 10 3 15 -9 13 -12 11 -12 -6z"/>
<path d="M17235 1370 c-22 -11 -46 -19 -52 -20 -7 0 -13 -11 -13 -24 0 -13 -3
-39 -7 -57 l-6 -34 37 45 c21 25 45 54 55 65 19 23 34 45 29 45 -2 -1 -21 -9
-43 -20z"/>
<path d="M1460 1361 c0 -6 4 -13 10 -16 6 -3 7 1 4 9 -7 18 -14 21 -14 7z"/>
<path d="M1315 1309 c-4 -6 -5 -12 -2 -15 2 -3 7 2 10 11 7 17 1 20 -8 4z"/>
<path d="M5174 1289 c-3 -6 -2 -15 4 -21 6 -6 12 -6 17 3 6 8 4 10 -5 4 -10
-6 -12 -4 -7 8 7 19 2 23 -9 6z"/>
<path d="M16975 1260 c3 -5 8 -10 11 -10 2 0 4 5 4 10 0 6 -5 10 -11 10 -5 0
-7 -4 -4 -10z"/>
<path d="M5086 1243 c-6 -14 -5 -15 5 -6 7 7 10 15 7 18 -3 3 -9 -2 -12 -12z"/>
<path d="M2754 1174 c3 -9 6 -20 6 -25 0 -11 161 -10 240 1 30 4 51 8 45 9
-42 6 -264 31 -279 31 -12 0 -16 -5 -12 -16z"/>
<path d="M4880 1136 c0 -2 8 -10 18 -17 15 -13 16 -12 3 4 -13 16 -21 21 -21
13z"/>
<path d="M12829 1103 c-13 -16 -12 -17 4 -4 16 13 21 21 13 21 -2 0 -10 -8
-17 -17z"/>
<path d="M13160 1079 c0 -5 5 -7 10 -4 6 3 10 8 10 11 0 2 -4 4 -10 4 -5 0
-10 -5 -10 -11z"/>
<path d="M16116 923 c-26 -66 45 -147 92 -105 18 16 17 19 -34 68 -39 37 -54
47 -58 37z"/>
<path d="M13168 723 c7 -3 16 -2 19 1 4 3 -2 6 -13 5 -11 0 -14 -3 -6 -6z"/>
<path d="M15830 390 c-8 -5 -11 -12 -7 -16 4 -4 13 -2 19 4 15 15 7 24 -12 12z"/>
<path d="M15565 132 c-11 -2 -26 -9 -34 -16 -17 -13 -71 -96 -71 -108 0 -13
35 -9 56 7 10 8 26 15 35 15 27 0 44 27 29 45 -7 8 -11 15 -9 16 2 0 18 3 34
5 35 6 70 33 45 35 -8 1 -26 2 -40 4 -14 1 -34 0 -45 -3z"/>
<path d="M13841 14 c13 -16 39 -19 39 -5 0 5 -11 11 -25 13 -20 4 -23 3 -14
-8z"/>
</g>
</svg>
